<mxfile host="app.diagrams.net" modified="2022-05-30T11:58:25.743Z" agent="5.0 (Windows NT 10.0; Win64; x64) AppleWebKit/537.36 (KHTML, like Gecko) Chrome/101.0.4951.67 Safari/537.36" etag="6GJ-eHZQpUM4-BtyOTPP" version="18.1.2" type="github" pages="4">
  <diagram id="I3lzoCXKx5in6-fqYpsn" name="Business Architecture">
    <mxGraphModel dx="2249" dy="762" grid="1" gridSize="10" guides="1" tooltips="1" connect="1" arrows="1" fold="1" page="1" pageScale="1" pageWidth="827" pageHeight="1169" math="0" shadow="0">
      <root>
        <mxCell id="0" />
        <mxCell id="1" parent="0" />
        <mxCell id="joVhFSl8MI9ZFcXh8bBL-40" value="" style="rounded=0;whiteSpace=wrap;html=1;dashed=1;labelBackgroundColor=none;labelBorderColor=none;fontFamily=Inter;fontSource=https%3A%2F%2Ffonts.googleapis.com%2Fcss%3Ffamily%3DInter;fontSize=14;fillColor=#b1ddf0;strokeColor=#10739e;" parent="1" vertex="1">
          <mxGeometry x="798.53" y="241" width="320" height="499" as="geometry" />
        </mxCell>
        <mxCell id="joVhFSl8MI9ZFcXh8bBL-22" value="" style="rounded=0;whiteSpace=wrap;html=1;dashed=1;labelBackgroundColor=none;labelBorderColor=none;fontFamily=Inter;fontSource=https%3A%2F%2Ffonts.googleapis.com%2Fcss%3Ffamily%3DInter;fontSize=14;fontColor=#4C0099;fillColor=#E6D0DE;" parent="1" vertex="1">
          <mxGeometry x="-801.47" y="240" width="1520" height="200" as="geometry" />
        </mxCell>
        <mxCell id="joVhFSl8MI9ZFcXh8bBL-23" value="" style="rounded=0;whiteSpace=wrap;html=1;dashed=1;labelBackgroundColor=none;labelBorderColor=none;fontFamily=Inter;fontSource=https%3A%2F%2Ffonts.googleapis.com%2Fcss%3Ffamily%3DInter;fontSize=14;fontColor=#FFFFCC;fillColor=#FFFF99;" parent="1" vertex="1">
          <mxGeometry x="-801.47" y="530" width="1520" height="210" as="geometry" />
        </mxCell>
        <mxCell id="IhZ-F99rQEXR0p4jWtA1-1" value="&lt;span style=&quot;font-size: 14px&quot;&gt;OPERATION&lt;/span&gt;" style="rounded=0;whiteSpace=wrap;html=1;fontFamily=Inter;verticalAlign=top;align=center;spacingLeft=6;fontStyle=1;fontSize=14;fontSource=https%3A%2F%2Ffonts.googleapis.com%2Fcss%3Ffamily%3DInter;" parent="1" vertex="1">
          <mxGeometry x="-201.47000000000003" y="266" width="530" height="150" as="geometry" />
        </mxCell>
        <mxCell id="IhZ-F99rQEXR0p4jWtA1-2" value="Underwriting" style="rounded=1;whiteSpace=wrap;html=1;fontFamily=Inter;fontSource=https%3A%2F%2Ffonts.googleapis.com%2Fcss%3Ffamily%3DInter;" parent="1" vertex="1">
          <mxGeometry x="-181.47000000000003" y="356" width="150" height="40" as="geometry" />
        </mxCell>
        <mxCell id="IhZ-F99rQEXR0p4jWtA1-3" value="New Business" style="rounded=1;whiteSpace=wrap;html=1;fontFamily=Inter;fontSource=https%3A%2F%2Ffonts.googleapis.com%2Fcss%3Ffamily%3DInter;fontStyle=0;labelBackgroundColor=none;labelBorderColor=none;" parent="1" vertex="1">
          <mxGeometry x="-181.47000000000003" y="306" width="150" height="40" as="geometry" />
        </mxCell>
        <mxCell id="IhZ-F99rQEXR0p4jWtA1-5" value="Customer Service" style="rounded=1;whiteSpace=wrap;html=1;fontFamily=Inter;fontSource=https%3A%2F%2Ffonts.googleapis.com%2Fcss%3Ffamily%3DInter;" parent="1" vertex="1">
          <mxGeometry x="-11.470000000000027" y="306" width="150" height="40" as="geometry" />
        </mxCell>
        <mxCell id="IhZ-F99rQEXR0p4jWtA1-6" value="&lt;span style=&quot;font-size: 14px&quot;&gt;SALE &amp;amp; DISTRIBUTION&lt;/span&gt;" style="rounded=0;whiteSpace=wrap;html=1;fontFamily=Inter;verticalAlign=top;align=center;spacingLeft=6;fontStyle=1;fontSize=14;fontSource=https%3A%2F%2Ffonts.googleapis.com%2Fcss%3Ffamily%3DInter;" parent="1" vertex="1">
          <mxGeometry x="-721.47" y="266" width="430" height="150" as="geometry" />
        </mxCell>
        <mxCell id="IhZ-F99rQEXR0p4jWtA1-7" value="Partnership Distribution" style="rounded=1;whiteSpace=wrap;html=1;fontFamily=Inter;fontSource=https%3A%2F%2Ffonts.googleapis.com%2Fcss%3Ffamily%3DInter;fontStyle=0;labelBackgroundColor=none;labelBorderColor=none;" parent="1" vertex="1">
          <mxGeometry x="-701.47" y="306" width="150" height="40" as="geometry" />
        </mxCell>
        <mxCell id="IhZ-F99rQEXR0p4jWtA1-8" value="Agency Distribution" style="rounded=1;whiteSpace=wrap;html=1;fontFamily=Inter;fontSource=https%3A%2F%2Ffonts.googleapis.com%2Fcss%3Ffamily%3DInter;fontStyle=0;labelBackgroundColor=none;labelBorderColor=none;" parent="1" vertex="1">
          <mxGeometry x="-701.47" y="356" width="150" height="40" as="geometry" />
        </mxCell>
        <mxCell id="IhZ-F99rQEXR0p4jWtA1-9" value="Distribution Strategies &amp;amp; Support" style="rounded=1;whiteSpace=wrap;html=1;fontFamily=Inter;fontSource=https%3A%2F%2Ffonts.googleapis.com%2Fcss%3Ffamily%3DInter;fontStyle=0;labelBackgroundColor=none;labelBorderColor=none;" parent="1" vertex="1">
          <mxGeometry x="-461.47" y="306" width="150" height="40" as="geometry" />
        </mxCell>
        <mxCell id="IhZ-F99rQEXR0p4jWtA1-11" value="Pru Academy" style="rounded=1;whiteSpace=wrap;html=1;fontFamily=Inter;fontSource=https%3A%2F%2Ffonts.googleapis.com%2Fcss%3Ffamily%3DInter;fontStyle=0;labelBackgroundColor=none;labelBorderColor=none;" parent="1" vertex="1">
          <mxGeometry x="-461.47" y="356" width="150" height="40" as="geometry" />
        </mxCell>
        <mxCell id="IhZ-F99rQEXR0p4jWtA1-12" value="" style="shape=flexArrow;endArrow=classic;html=1;rounded=0;fontFamily=Inter;fontSource=https%3A%2F%2Ffonts.googleapis.com%2Fcss%3Ffamily%3DInter;fontSize=14;endWidth=19.310344827586206;endSize=8.262068965517242;width=24.137931034482758;fillColor=#fff2cc;strokeColor=#d6b656;" parent="1" edge="1">
          <mxGeometry width="50" height="50" relative="1" as="geometry">
            <mxPoint x="-472.47" y="351" as="sourcePoint" />
            <mxPoint x="-542.47" y="351.31" as="targetPoint" />
          </mxGeometry>
        </mxCell>
        <mxCell id="IhZ-F99rQEXR0p4jWtA1-14" value="" style="shape=flexArrow;endArrow=classic;html=1;rounded=0;fontFamily=Inter;fontSource=https%3A%2F%2Ffonts.googleapis.com%2Fcss%3Ffamily%3DInter;fontSize=14;endWidth=19.310344827586206;endSize=8.262068965517242;width=24.137931034482758;fillColor=#fff2cc;strokeColor=#d6b656;" parent="1" edge="1">
          <mxGeometry width="50" height="50" relative="1" as="geometry">
            <mxPoint x="-211.47000000000003" y="341" as="sourcePoint" />
            <mxPoint x="-281.47" y="341.30999999999995" as="targetPoint" />
          </mxGeometry>
        </mxCell>
        <mxCell id="IhZ-F99rQEXR0p4jWtA1-15" value="Policy Servicing" style="rounded=1;whiteSpace=wrap;html=1;fontFamily=Inter;fontSource=https%3A%2F%2Ffonts.googleapis.com%2Fcss%3Ffamily%3DInter;" parent="1" vertex="1">
          <mxGeometry x="-11.470000000000027" y="356" width="150" height="40" as="geometry" />
        </mxCell>
        <mxCell id="IhZ-F99rQEXR0p4jWtA1-17" value="Claim" style="rounded=1;whiteSpace=wrap;html=1;fontFamily=Inter;fontSource=https%3A%2F%2Ffonts.googleapis.com%2Fcss%3Ffamily%3DInter;" parent="1" vertex="1">
          <mxGeometry x="158.52999999999997" y="306" width="150" height="40" as="geometry" />
        </mxCell>
        <mxCell id="IhZ-F99rQEXR0p4jWtA1-30" value="RISK &amp;amp; COMPLIANCE" style="rounded=0;whiteSpace=wrap;html=1;fontFamily=Inter;verticalAlign=top;align=center;spacingLeft=6;fontStyle=1;fontSize=14;fontSource=https%3A%2F%2Ffonts.googleapis.com%2Fcss%3Ffamily%3DInter;" parent="1" vertex="1">
          <mxGeometry x="-191.47000000000003" y="559.5899999999999" width="350" height="150" as="geometry" />
        </mxCell>
        <mxCell id="IhZ-F99rQEXR0p4jWtA1-31" value="Legal" style="rounded=1;whiteSpace=wrap;html=1;fontFamily=Inter;fontSource=https%3A%2F%2Ffonts.googleapis.com%2Fcss%3Ffamily%3DInter;fontStyle=0;labelBackgroundColor=none;labelBorderColor=none;" parent="1" vertex="1">
          <mxGeometry x="-171.47000000000003" y="599.5899999999999" width="150" height="40" as="geometry" />
        </mxCell>
        <mxCell id="IhZ-F99rQEXR0p4jWtA1-32" value="Risk &amp;amp; Compliance" style="rounded=1;whiteSpace=wrap;html=1;fontFamily=Inter;fontSource=https%3A%2F%2Ffonts.googleapis.com%2Fcss%3Ffamily%3DInter;fontStyle=0;labelBackgroundColor=none;labelBorderColor=none;" parent="1" vertex="1">
          <mxGeometry x="-171.47000000000003" y="649.5899999999999" width="150" height="40" as="geometry" />
        </mxCell>
        <mxCell id="IhZ-F99rQEXR0p4jWtA1-34" value="IT Security &amp;amp; Governance" style="rounded=1;whiteSpace=wrap;html=1;fontFamily=Inter;fontSource=https%3A%2F%2Ffonts.googleapis.com%2Fcss%3Ffamily%3DInter;fontStyle=0;labelBackgroundColor=none;labelBorderColor=none;" parent="1" vertex="1">
          <mxGeometry x="-11.470000000000027" y="599.5899999999999" width="150" height="40" as="geometry" />
        </mxCell>
        <mxCell id="IhZ-F99rQEXR0p4jWtA1-35" value="Data Governance" style="rounded=1;whiteSpace=wrap;html=1;fontFamily=Inter;fontSource=https%3A%2F%2Ffonts.googleapis.com%2Fcss%3Ffamily%3DInter;fontStyle=0;labelBackgroundColor=none;labelBorderColor=none;" parent="1" vertex="1">
          <mxGeometry x="-11.470000000000027" y="649.5899999999999" width="150" height="40" as="geometry" />
        </mxCell>
        <mxCell id="joVhFSl8MI9ZFcXh8bBL-2" value="FINANCE" style="rounded=0;whiteSpace=wrap;html=1;fontFamily=Inter;verticalAlign=top;align=center;spacingLeft=6;fontStyle=1;fontSize=14;fontSource=https%3A%2F%2Ffonts.googleapis.com%2Fcss%3Ffamily%3DInter;" parent="1" vertex="1">
          <mxGeometry x="178.52999999999997" y="559.5899999999999" width="510" height="150" as="geometry" />
        </mxCell>
        <mxCell id="joVhFSl8MI9ZFcXh8bBL-3" value="Financial Reporting" style="rounded=1;whiteSpace=wrap;html=1;fontFamily=Inter;fontSource=https%3A%2F%2Ffonts.googleapis.com%2Fcss%3Ffamily%3DInter;fontStyle=0;labelBackgroundColor=none;labelBorderColor=none;" parent="1" vertex="1">
          <mxGeometry x="198.52999999999997" y="599.5899999999999" width="150" height="40" as="geometry" />
        </mxCell>
        <mxCell id="joVhFSl8MI9ZFcXh8bBL-4" value="Actuarial Reporting" style="rounded=1;whiteSpace=wrap;html=1;fontFamily=Inter;fontSource=https%3A%2F%2Ffonts.googleapis.com%2Fcss%3Ffamily%3DInter;fontStyle=0;labelBackgroundColor=none;labelBorderColor=none;" parent="1" vertex="1">
          <mxGeometry x="198.52999999999997" y="649.5899999999999" width="150" height="40" as="geometry" />
        </mxCell>
        <mxCell id="joVhFSl8MI9ZFcXh8bBL-5" value="Accounting" style="rounded=1;whiteSpace=wrap;html=1;fontFamily=Inter;fontSource=https%3A%2F%2Ffonts.googleapis.com%2Fcss%3Ffamily%3DInter;fontStyle=0;labelBackgroundColor=none;labelBorderColor=none;" parent="1" vertex="1">
          <mxGeometry x="358.53" y="599.5899999999999" width="150" height="40" as="geometry" />
        </mxCell>
        <mxCell id="joVhFSl8MI9ZFcXh8bBL-7" value="Actuary: Product &amp;amp; Pricing" style="rounded=1;whiteSpace=wrap;html=1;fontFamily=Inter;fontSource=https%3A%2F%2Ffonts.googleapis.com%2Fcss%3Ffamily%3DInter;fontStyle=0;labelBackgroundColor=none;labelBorderColor=none;" parent="1" vertex="1">
          <mxGeometry x="358.53" y="649.5899999999999" width="150" height="40" as="geometry" />
        </mxCell>
        <mxCell id="joVhFSl8MI9ZFcXh8bBL-9" value="" style="shape=flexArrow;endArrow=classic;startArrow=classic;html=1;rounded=0;fontFamily=Inter;fontSource=https%3A%2F%2Ffonts.googleapis.com%2Fcss%3Ffamily%3DInter;fontSize=14;fontColor=#4C0099;width=26;endSize=7.055172413793104;fillColor=#fff2cc;strokeColor=#d6b656;startSize=7.055172413793104;" parent="1" edge="1">
          <mxGeometry width="100" height="100" relative="1" as="geometry">
            <mxPoint x="-21.470000000000027" y="525" as="sourcePoint" />
            <mxPoint x="-21.470000000000027" y="443" as="targetPoint" />
          </mxGeometry>
        </mxCell>
        <mxCell id="joVhFSl8MI9ZFcXh8bBL-11" value="HUMAN RESOURCE" style="rounded=0;whiteSpace=wrap;html=1;fontFamily=Inter;verticalAlign=top;align=center;spacingLeft=6;fontStyle=1;fontSize=14;fontSource=https%3A%2F%2Ffonts.googleapis.com%2Fcss%3Ffamily%3DInter;" parent="1" vertex="1">
          <mxGeometry x="-721.47" y="559.59" width="510" height="150" as="geometry" />
        </mxCell>
        <mxCell id="joVhFSl8MI9ZFcXh8bBL-12" value="Recuirment" style="rounded=1;whiteSpace=wrap;html=1;fontFamily=Inter;fontSource=https%3A%2F%2Ffonts.googleapis.com%2Fcss%3Ffamily%3DInter;fontStyle=0;labelBackgroundColor=none;labelBorderColor=none;" parent="1" vertex="1">
          <mxGeometry x="-701.47" y="599.59" width="150" height="40" as="geometry" />
        </mxCell>
        <mxCell id="joVhFSl8MI9ZFcXh8bBL-13" value="Communication &amp;amp; Engagement" style="rounded=1;whiteSpace=wrap;html=1;fontFamily=Inter;fontSource=https%3A%2F%2Ffonts.googleapis.com%2Fcss%3Ffamily%3DInter;fontStyle=0;labelBackgroundColor=none;labelBorderColor=none;" parent="1" vertex="1">
          <mxGeometry x="-701.47" y="649.59" width="150" height="40" as="geometry" />
        </mxCell>
        <mxCell id="joVhFSl8MI9ZFcXh8bBL-14" value="Compensation &amp;amp; Benefits" style="rounded=1;whiteSpace=wrap;html=1;fontFamily=Inter;fontSource=https%3A%2F%2Ffonts.googleapis.com%2Fcss%3Ffamily%3DInter;fontStyle=0;labelBackgroundColor=none;labelBorderColor=none;" parent="1" vertex="1">
          <mxGeometry x="-541.47" y="599.59" width="150" height="40" as="geometry" />
        </mxCell>
        <mxCell id="joVhFSl8MI9ZFcXh8bBL-15" value="Business Strategy &amp;amp; People Partner" style="rounded=1;whiteSpace=wrap;html=1;fontFamily=Inter;fontSource=https%3A%2F%2Ffonts.googleapis.com%2Fcss%3Ffamily%3DInter;fontStyle=0;labelBackgroundColor=none;labelBorderColor=none;" parent="1" vertex="1">
          <mxGeometry x="-541.47" y="649.59" width="150" height="40" as="geometry" />
        </mxCell>
        <mxCell id="joVhFSl8MI9ZFcXh8bBL-16" value="Business &amp;amp; Operation Functions" style="text;html=1;strokeColor=none;fillColor=#e1d5e7;align=center;verticalAlign=middle;whiteSpace=wrap;rounded=0;dashed=1;labelBackgroundColor=none;labelBorderColor=none;fontFamily=Inter;fontSource=https%3A%2F%2Ffonts.googleapis.com%2Fcss%3Ffamily%3DInter;fontSize=14;fontStyle=1;rotation=-90;fontColor=#4C0099;spacingLeft=5;spacingRight=5;" parent="1" vertex="1">
          <mxGeometry x="-875.99" y="316.73" width="196.55" height="47.5" as="geometry" />
        </mxCell>
        <mxCell id="joVhFSl8MI9ZFcXh8bBL-17" value="Business Support Functions" style="text;html=1;strokeColor=none;fillColor=#FFFFCC;align=center;verticalAlign=middle;whiteSpace=wrap;rounded=0;dashed=1;labelBackgroundColor=none;labelBorderColor=none;fontFamily=Inter;fontSource=https%3A%2F%2Ffonts.googleapis.com%2Fcss%3Ffamily%3DInter;fontSize=14;fontStyle=1;rotation=-90;fontColor=#999900;spacingLeft=5;spacingRight=5;" parent="1" vertex="1">
          <mxGeometry x="-880" y="611.26" width="206.54" height="47.5" as="geometry" />
        </mxCell>
        <mxCell id="joVhFSl8MI9ZFcXh8bBL-18" value="Learning &amp;amp; Development" style="rounded=1;whiteSpace=wrap;html=1;fontFamily=Inter;fontSource=https%3A%2F%2Ffonts.googleapis.com%2Fcss%3Ffamily%3DInter;fontStyle=0;labelBackgroundColor=none;labelBorderColor=none;" parent="1" vertex="1">
          <mxGeometry x="-381.47" y="599.59" width="150" height="40" as="geometry" />
        </mxCell>
        <mxCell id="joVhFSl8MI9ZFcXh8bBL-19" value="Property" style="rounded=1;whiteSpace=wrap;html=1;fontFamily=Inter;fontSource=https%3A%2F%2Ffonts.googleapis.com%2Fcss%3Ffamily%3DInter;fontStyle=0;labelBackgroundColor=none;labelBorderColor=none;" parent="1" vertex="1">
          <mxGeometry x="518.53" y="599.5899999999999" width="150" height="40" as="geometry" />
        </mxCell>
        <mxCell id="joVhFSl8MI9ZFcXh8bBL-20" value="Procurement" style="rounded=1;whiteSpace=wrap;html=1;fontFamily=Inter;fontSource=https%3A%2F%2Ffonts.googleapis.com%2Fcss%3Ffamily%3DInter;fontStyle=0;labelBackgroundColor=none;labelBorderColor=none;" parent="1" vertex="1">
          <mxGeometry x="518.53" y="649.5899999999999" width="150" height="40" as="geometry" />
        </mxCell>
        <mxCell id="joVhFSl8MI9ZFcXh8bBL-21" value="&lt;span style=&quot;font-size: 20px;&quot;&gt;CUSTOMER&lt;/span&gt;" style="rounded=0;whiteSpace=wrap;html=1;fontFamily=Helvetica;verticalAlign=middle;align=center;spacingLeft=6;fontStyle=1;fontSize=20;fillColor=#fad9d5;strokeColor=#ae4132;" parent="1" vertex="1">
          <mxGeometry x="-801.47" y="120" width="1520" height="40" as="geometry" />
        </mxCell>
        <mxCell id="joVhFSl8MI9ZFcXh8bBL-24" value="" style="shape=flexArrow;endArrow=classic;startArrow=classic;html=1;rounded=0;fontFamily=Inter;fontSource=https%3A%2F%2Ffonts.googleapis.com%2Fcss%3Ffamily%3DInter;fontSize=14;fontColor=#4C0099;width=26;endSize=7.055172413793104;fillColor=#fff2cc;strokeColor=#d6b656;startSize=7.055172413793104;" parent="1" edge="1">
          <mxGeometry width="100" height="100" relative="1" as="geometry">
            <mxPoint x="-471.47" y="526" as="sourcePoint" />
            <mxPoint x="-471.47" y="444" as="targetPoint" />
          </mxGeometry>
        </mxCell>
        <mxCell id="joVhFSl8MI9ZFcXh8bBL-25" value="" style="shape=flexArrow;endArrow=classic;startArrow=classic;html=1;rounded=0;fontFamily=Inter;fontSource=https%3A%2F%2Ffonts.googleapis.com%2Fcss%3Ffamily%3DInter;fontSize=14;fontColor=#4C0099;width=26;endSize=7.055172413793104;fillColor=#fff2cc;strokeColor=#d6b656;startSize=7.055172413793104;" parent="1" edge="1">
          <mxGeometry width="100" height="100" relative="1" as="geometry">
            <mxPoint x="438.53" y="526" as="sourcePoint" />
            <mxPoint x="438.53" y="444" as="targetPoint" />
          </mxGeometry>
        </mxCell>
        <mxCell id="joVhFSl8MI9ZFcXh8bBL-26" value="" style="shape=flexArrow;endArrow=classic;startArrow=classic;html=1;rounded=0;fontFamily=Inter;fontSource=https%3A%2F%2Ffonts.googleapis.com%2Fcss%3Ffamily%3DInter;fontSize=14;fontColor=#4C0099;width=26;endSize=7.055172413793104;fillColor=#fff2cc;strokeColor=#d6b656;startSize=7.055172413793104;" parent="1" edge="1">
          <mxGeometry width="100" height="100" relative="1" as="geometry">
            <mxPoint x="-521.47" y="235" as="sourcePoint" />
            <mxPoint x="-521.47" y="165" as="targetPoint" />
          </mxGeometry>
        </mxCell>
        <mxCell id="joVhFSl8MI9ZFcXh8bBL-27" value="" style="shape=flexArrow;endArrow=classic;startArrow=classic;html=1;rounded=0;fontFamily=Inter;fontSource=https%3A%2F%2Ffonts.googleapis.com%2Fcss%3Ffamily%3DInter;fontSize=14;fontColor=#4C0099;width=26;endSize=7.055172413793104;fillColor=#fff2cc;strokeColor=#d6b656;startSize=7.055172413793104;" parent="1" edge="1">
          <mxGeometry width="100" height="100" relative="1" as="geometry">
            <mxPoint x="78.52999999999997" y="235" as="sourcePoint" />
            <mxPoint x="78.52999999999997" y="165" as="targetPoint" />
          </mxGeometry>
        </mxCell>
        <mxCell id="joVhFSl8MI9ZFcXh8bBL-28" value="&lt;span style=&quot;font-size: 14px&quot;&gt;TRANSFORMATION &amp;amp; EFFICIENCY&lt;/span&gt;" style="rounded=0;whiteSpace=wrap;html=1;fontFamily=Inter;verticalAlign=top;align=center;spacingLeft=6;fontStyle=1;fontSize=14;fontSource=https%3A%2F%2Ffonts.googleapis.com%2Fcss%3Ffamily%3DInter;" parent="1" vertex="1">
          <mxGeometry x="828.53" y="309.59000000000003" width="260" height="400" as="geometry" />
        </mxCell>
        <mxCell id="joVhFSl8MI9ZFcXh8bBL-29" value="Cloud Infrastructure" style="rounded=1;whiteSpace=wrap;html=1;fontFamily=Inter;fontSource=https%3A%2F%2Ffonts.googleapis.com%2Fcss%3Ffamily%3DInter;" parent="1" vertex="1">
          <mxGeometry x="848.53" y="649.1800000000001" width="220" height="40" as="geometry" />
        </mxCell>
        <mxCell id="joVhFSl8MI9ZFcXh8bBL-30" value="End User Support" style="rounded=1;whiteSpace=wrap;html=1;fontFamily=Inter;fontSource=https%3A%2F%2Ffonts.googleapis.com%2Fcss%3Ffamily%3DInter;" parent="1" vertex="1">
          <mxGeometry x="848.53" y="599.59" width="220" height="40" as="geometry" />
        </mxCell>
        <mxCell id="joVhFSl8MI9ZFcXh8bBL-31" value="Application Delivery - Systems &amp;amp; Services" style="rounded=1;whiteSpace=wrap;html=1;fontFamily=Inter;fontSource=https%3A%2F%2Ffonts.googleapis.com%2Fcss%3Ffamily%3DInter;" parent="1" vertex="1">
          <mxGeometry x="848.53" y="349.59" width="220" height="40" as="geometry" />
        </mxCell>
        <mxCell id="joVhFSl8MI9ZFcXh8bBL-33" value="Technology Solution &amp;amp; Data Engineering" style="rounded=1;whiteSpace=wrap;html=1;fontFamily=Inter;fontSource=https%3A%2F%2Ffonts.googleapis.com%2Fcss%3Ffamily%3DInter;" parent="1" vertex="1">
          <mxGeometry x="848.53" y="399.5899999999999" width="220" height="40" as="geometry" />
        </mxCell>
        <mxCell id="joVhFSl8MI9ZFcXh8bBL-34" value="Ecosystem Integration" style="rounded=1;whiteSpace=wrap;html=1;fontFamily=Inter;fontSource=https%3A%2F%2Ffonts.googleapis.com%2Fcss%3Ffamily%3DInter;" parent="1" vertex="1">
          <mxGeometry x="848.53" y="549.5899999999999" width="220" height="40" as="geometry" />
        </mxCell>
        <mxCell id="joVhFSl8MI9ZFcXh8bBL-35" value="Business Intelligence Unit" style="rounded=1;whiteSpace=wrap;html=1;fontFamily=Inter;fontSource=https%3A%2F%2Ffonts.googleapis.com%2Fcss%3Ffamily%3DInter;" parent="1" vertex="1">
          <mxGeometry x="848.53" y="499.5899999999999" width="220" height="40" as="geometry" />
        </mxCell>
        <mxCell id="joVhFSl8MI9ZFcXh8bBL-36" value="Delivery - Digital Products and Assets" style="rounded=1;whiteSpace=wrap;html=1;fontFamily=Inter;fontSource=https%3A%2F%2Ffonts.googleapis.com%2Fcss%3Ffamily%3DInter;" parent="1" vertex="1">
          <mxGeometry x="848.53" y="449.5899999999999" width="220" height="40" as="geometry" />
        </mxCell>
        <mxCell id="joVhFSl8MI9ZFcXh8bBL-37" value="Customer Aquisition" style="rounded=1;whiteSpace=wrap;html=1;fontFamily=Inter;fontSource=https%3A%2F%2Ffonts.googleapis.com%2Fcss%3Ffamily%3DInter;" parent="1" vertex="1">
          <mxGeometry x="358.53" y="276.73" width="250" height="40" as="geometry" />
        </mxCell>
        <mxCell id="joVhFSl8MI9ZFcXh8bBL-39" value="Technology &amp;amp; Solution" style="text;html=1;strokeColor=none;fillColor=#BCEBFF;align=center;verticalAlign=middle;whiteSpace=wrap;rounded=0;dashed=1;labelBackgroundColor=none;labelBorderColor=none;fontFamily=Inter;fontSource=https%3A%2F%2Ffonts.googleapis.com%2Fcss%3Ffamily%3DInter;fontSize=14;fontStyle=1;rotation=0;spacingLeft=5;spacingRight=5;" parent="1" vertex="1">
          <mxGeometry x="799.53" y="242" width="319" height="47.5" as="geometry" />
        </mxCell>
        <mxCell id="joVhFSl8MI9ZFcXh8bBL-41" value="" style="shape=flexArrow;endArrow=classic;html=1;rounded=0;fontFamily=Inter;fontSource=https%3A%2F%2Ffonts.googleapis.com%2Fcss%3Ffamily%3DInter;fontSize=14;endWidth=19.310344827586206;endSize=8.262068965517242;width=24.137931034482758;fillColor=#fff2cc;strokeColor=#d6b656;" parent="1" edge="1">
          <mxGeometry width="50" height="50" relative="1" as="geometry">
            <mxPoint x="792.53" y="345" as="sourcePoint" />
            <mxPoint x="722.53" y="345.30999999999995" as="targetPoint" />
          </mxGeometry>
        </mxCell>
        <mxCell id="joVhFSl8MI9ZFcXh8bBL-42" value="" style="shape=flexArrow;endArrow=classic;html=1;rounded=0;fontFamily=Inter;fontSource=https%3A%2F%2Ffonts.googleapis.com%2Fcss%3Ffamily%3DInter;fontSize=14;endWidth=19.310344827586206;endSize=8.262068965517242;width=24.137931034482758;fillColor=#fff2cc;strokeColor=#d6b656;" parent="1" edge="1">
          <mxGeometry width="50" height="50" relative="1" as="geometry">
            <mxPoint x="792.53" y="640" as="sourcePoint" />
            <mxPoint x="722.53" y="640.31" as="targetPoint" />
          </mxGeometry>
        </mxCell>
        <mxCell id="LpEJ04r9XFcQDrKGhBHU-1" value="" style="rounded=0;whiteSpace=wrap;html=1;shadow=0;sketch=0;fontFamily=Helvetica;fontSize=14;fillColor=#f5f5f5;fontColor=#333333;strokeColor=#CCCCCC;" parent="1" vertex="1">
          <mxGeometry x="-819.48" y="10" width="1959.48" height="90" as="geometry" />
        </mxCell>
        <mxCell id="LpEJ04r9XFcQDrKGhBHU-2" value="PCLA Business Architecture Diagram" style="text;html=1;strokeColor=none;fillColor=none;align=left;verticalAlign=middle;whiteSpace=wrap;rounded=0;fontSize=34;fontFamily=Helvetica;fontStyle=1;fontColor=#D50000;sketch=0;shadow=0;" parent="1" vertex="1">
          <mxGeometry x="-800.48" y="20" width="769.48" height="50" as="geometry" />
        </mxCell>
        <mxCell id="LpEJ04r9XFcQDrKGhBHU-3" value="Version: &lt;b&gt;1.0&lt;/b&gt;&lt;span style=&quot;white-space: pre;&quot;&gt; &lt;/span&gt;&lt;span style=&quot;white-space: pre;&quot;&gt; &lt;/span&gt;&lt;span style=&quot;white-space: pre;&quot;&gt; &lt;/span&gt;Author: &lt;b&gt;Vannak Suon&lt;/b&gt;" style="text;html=1;strokeColor=none;fillColor=none;align=left;verticalAlign=middle;whiteSpace=wrap;rounded=0;fontSize=14;fontFamily=Helvetica;fontStyle=0;fontColor=#4D4D4D;sketch=0;shadow=0;" parent="1" vertex="1">
          <mxGeometry x="-799.48" y="70" width="769.48" height="20" as="geometry" />
        </mxCell>
      </root>
    </mxGraphModel>
  </diagram>
  <diagram name="Enterprise Architecture" id="T2dRqerPH2WT0VfCYdFs">
    <mxGraphModel dx="2249" dy="762" grid="1" gridSize="10" guides="1" tooltips="1" connect="1" arrows="1" fold="1" page="1" pageScale="1" pageWidth="827" pageHeight="1169" math="0" shadow="0">
      <root>
        <mxCell id="KKGqycOkMeRsJXnEsVrt-0" />
        <mxCell id="KKGqycOkMeRsJXnEsVrt-1" parent="KKGqycOkMeRsJXnEsVrt-0" />
        <mxCell id="kFiXm6X60qzUMDx8Z_69-6" value="" style="rounded=0;whiteSpace=wrap;html=1;shadow=0;sketch=0;fontFamily=Helvetica;fontSize=14;fillColor=#f5f5f5;fontColor=#333333;strokeColor=#CCCCCC;" parent="KKGqycOkMeRsJXnEsVrt-1" vertex="1">
          <mxGeometry x="-819.48" y="10" width="1539.48" height="90" as="geometry" />
        </mxCell>
        <mxCell id="MnhJsnDO0eoFPCqQJyrO-21" value="" style="rounded=0;whiteSpace=wrap;html=1;dashed=1;labelBackgroundColor=none;labelBorderColor=none;fontFamily=Inter;fontSource=https%3A%2F%2Ffonts.googleapis.com%2Fcss%3Ffamily%3DInter;fontSize=14;fontColor=#333333;fillColor=#f5f5f5;strokeColor=#666666;" parent="KKGqycOkMeRsJXnEsVrt-1" vertex="1">
          <mxGeometry x="-799.48" y="500" width="1515.48" height="320" as="geometry" />
        </mxCell>
        <mxCell id="KKGqycOkMeRsJXnEsVrt-10" value="PruONE (ePoS)" style="rounded=1;whiteSpace=wrap;html=1;fontFamily=Inter;fontSource=https%3A%2F%2Ffonts.googleapis.com%2Fcss%3Ffamily%3DInter;fontStyle=0;labelBackgroundColor=none;labelBorderColor=none;fillColor=#ffcccc;strokeColor=#36393d;shadow=1;" parent="KKGqycOkMeRsJXnEsVrt-1" vertex="1">
          <mxGeometry x="-696.48" y="610" width="150" height="40" as="geometry" />
        </mxCell>
        <mxCell id="KKGqycOkMeRsJXnEsVrt-13" value="e-Recruitment" style="rounded=1;whiteSpace=wrap;html=1;fontFamily=Inter;fontSource=https%3A%2F%2Ffonts.googleapis.com%2Fcss%3Ffamily%3DInter;fontStyle=0;labelBackgroundColor=none;labelBorderColor=none;fillColor=#f5f5f5;strokeColor=#666666;fontColor=#333333;dashed=1;shadow=1;" parent="KKGqycOkMeRsJXnEsVrt-1" vertex="1">
          <mxGeometry x="-451" y="610" width="150" height="40" as="geometry" />
        </mxCell>
        <mxCell id="KKGqycOkMeRsJXnEsVrt-17" value="Automation Service (SMS/Email)" style="rounded=1;whiteSpace=wrap;html=1;fontFamily=Inter;fontSource=https%3A%2F%2Ffonts.googleapis.com%2Fcss%3Ffamily%3DInter;fontStyle=0;labelBackgroundColor=none;labelBorderColor=none;fillColor=#d5e8d4;strokeColor=#82b366;fontColor=#006600;shadow=1;" parent="KKGqycOkMeRsJXnEsVrt-1" vertex="1">
          <mxGeometry x="-696.48" y="660" width="150" height="40" as="geometry" />
        </mxCell>
        <mxCell id="KKGqycOkMeRsJXnEsVrt-18" value="Policy Admin System" style="rounded=1;whiteSpace=wrap;html=1;fontFamily=Inter;fontSource=https%3A%2F%2Ffonts.googleapis.com%2Fcss%3Ffamily%3DInter;fontStyle=0;labelBackgroundColor=none;labelBorderColor=none;fillColor=#d5e8d4;strokeColor=#82b366;fontColor=#006600;shadow=1;" parent="KKGqycOkMeRsJXnEsVrt-1" vertex="1">
          <mxGeometry x="-176.48000000000002" y="610" width="150" height="40" as="geometry" />
        </mxCell>
        <mxCell id="KKGqycOkMeRsJXnEsVrt-19" value="Automation Service (SMS/Email)" style="rounded=1;whiteSpace=wrap;html=1;fontFamily=Inter;fontSource=https%3A%2F%2Ffonts.googleapis.com%2Fcss%3Ffamily%3DInter;fontStyle=0;labelBackgroundColor=none;labelBorderColor=none;fillColor=#d5e8d4;strokeColor=#82b366;fontColor=#006600;shadow=1;" parent="KKGqycOkMeRsJXnEsVrt-1" vertex="1">
          <mxGeometry x="-6.480000000000004" y="710" width="150" height="40" as="geometry" />
        </mxCell>
        <mxCell id="KKGqycOkMeRsJXnEsVrt-20" value="PruCRM" style="rounded=1;whiteSpace=wrap;html=1;fontFamily=Inter;fontSource=https%3A%2F%2Ffonts.googleapis.com%2Fcss%3Ffamily%3DInter;fontStyle=0;labelBackgroundColor=none;labelBorderColor=none;fillColor=#d5e8d4;strokeColor=#82b366;fontColor=#006600;sketch=0;shadow=1;glass=0;" parent="KKGqycOkMeRsJXnEsVrt-1" vertex="1">
          <mxGeometry x="-6.480000000000004" y="660" width="150" height="40" as="geometry" />
        </mxCell>
        <mxCell id="KKGqycOkMeRsJXnEsVrt-21" value="PowerBI: Report / Dashboard / Dataset" style="rounded=1;whiteSpace=wrap;html=1;fontFamily=Inter;fontSource=https%3A%2F%2Ffonts.googleapis.com%2Fcss%3Ffamily%3DInter;fontStyle=0;labelBackgroundColor=none;labelBorderColor=none;fillColor=#b0e3e6;strokeColor=#0e8088;shadow=1;" parent="KKGqycOkMeRsJXnEsVrt-1" vertex="1">
          <mxGeometry x="-721" y="520" width="1050" height="30" as="geometry" />
        </mxCell>
        <mxCell id="KKGqycOkMeRsJXnEsVrt-22" value="Automation Service (STP/ePolicy-Kit)" style="rounded=1;whiteSpace=wrap;html=1;fontFamily=Inter;fontSource=https%3A%2F%2Ffonts.googleapis.com%2Fcss%3Ffamily%3DInter;fontStyle=0;labelBackgroundColor=none;labelBorderColor=none;fillColor=#d5e8d4;strokeColor=#82b366;fontColor=#006600;shadow=1;" parent="KKGqycOkMeRsJXnEsVrt-1" vertex="1">
          <mxGeometry x="-176.48000000000002" y="710" width="150" height="40" as="geometry" />
        </mxCell>
        <mxCell id="KKGqycOkMeRsJXnEsVrt-23" value="&lt;b&gt;PRU&lt;/b&gt;dna" style="rounded=1;whiteSpace=wrap;html=1;fontFamily=Inter;fontSource=https%3A%2F%2Ffonts.googleapis.com%2Fcss%3Ffamily%3DInter;fontStyle=0;labelBackgroundColor=none;labelBorderColor=none;fillColor=#d5e8d4;strokeColor=#82b366;fontColor=#006600;shadow=1;" parent="KKGqycOkMeRsJXnEsVrt-1" vertex="1">
          <mxGeometry x="-451" y="660" width="150" height="40" as="geometry" />
        </mxCell>
        <mxCell id="KKGqycOkMeRsJXnEsVrt-24" value="&lt;b&gt;PRU&lt;/b&gt;Expert" style="rounded=1;whiteSpace=wrap;html=1;fontFamily=Inter;fontSource=https%3A%2F%2Ffonts.googleapis.com%2Fcss%3Ffamily%3DInter;fontStyle=0;labelBackgroundColor=none;labelBorderColor=none;fillColor=#cce5ff;strokeColor=#36393d;shadow=1;" parent="KKGqycOkMeRsJXnEsVrt-1" vertex="1">
          <mxGeometry x="-451" y="710" width="150" height="40" as="geometry" />
        </mxCell>
        <mxCell id="KKGqycOkMeRsJXnEsVrt-25" value="O365 / SharePoint" style="rounded=1;whiteSpace=wrap;html=1;fontFamily=Inter;fontSource=https%3A%2F%2Ffonts.googleapis.com%2Fcss%3Ffamily%3DInter;fontStyle=0;labelBackgroundColor=none;labelBorderColor=none;fillColor=#b0e3e6;strokeColor=#0e8088;shadow=1;" parent="KKGqycOkMeRsJXnEsVrt-1" vertex="1">
          <mxGeometry x="-721" y="560" width="1050" height="30" as="geometry" />
        </mxCell>
        <mxCell id="MnhJsnDO0eoFPCqQJyrO-0" value="" style="rounded=0;whiteSpace=wrap;html=1;dashed=1;labelBackgroundColor=none;labelBorderColor=none;fontFamily=Inter;fontSource=https%3A%2F%2Ffonts.googleapis.com%2Fcss%3Ffamily%3DInter;fontSize=14;fontColor=#4C0099;fillColor=#E6D0DE;" parent="KKGqycOkMeRsJXnEsVrt-1" vertex="1">
          <mxGeometry x="-799.48" y="270" width="1155.48" height="200" as="geometry" />
        </mxCell>
        <mxCell id="MnhJsnDO0eoFPCqQJyrO-1" value="&lt;span style=&quot;font-size: 14px&quot;&gt;OPERATION&lt;/span&gt;" style="rounded=0;whiteSpace=wrap;html=1;fontFamily=Inter;verticalAlign=top;align=center;spacingLeft=6;fontStyle=1;fontSize=14;fontSource=https%3A%2F%2Ffonts.googleapis.com%2Fcss%3Ffamily%3DInter;" parent="KKGqycOkMeRsJXnEsVrt-1" vertex="1">
          <mxGeometry x="-199.48" y="296" width="530" height="150" as="geometry" />
        </mxCell>
        <mxCell id="MnhJsnDO0eoFPCqQJyrO-2" value="Underwriting" style="rounded=1;whiteSpace=wrap;html=1;fontFamily=Inter;fontSource=https%3A%2F%2Ffonts.googleapis.com%2Fcss%3Ffamily%3DInter;" parent="KKGqycOkMeRsJXnEsVrt-1" vertex="1">
          <mxGeometry x="-179.48" y="386" width="150" height="40" as="geometry" />
        </mxCell>
        <mxCell id="MnhJsnDO0eoFPCqQJyrO-3" value="New Business" style="rounded=1;whiteSpace=wrap;html=1;fontFamily=Inter;fontSource=https%3A%2F%2Ffonts.googleapis.com%2Fcss%3Ffamily%3DInter;fontStyle=0;labelBackgroundColor=none;labelBorderColor=none;" parent="KKGqycOkMeRsJXnEsVrt-1" vertex="1">
          <mxGeometry x="-179.48" y="336" width="150" height="40" as="geometry" />
        </mxCell>
        <mxCell id="MnhJsnDO0eoFPCqQJyrO-4" value="Customer Service" style="rounded=1;whiteSpace=wrap;html=1;fontFamily=Inter;fontSource=https%3A%2F%2Ffonts.googleapis.com%2Fcss%3Ffamily%3DInter;" parent="KKGqycOkMeRsJXnEsVrt-1" vertex="1">
          <mxGeometry x="-9.47999999999999" y="336" width="150" height="40" as="geometry" />
        </mxCell>
        <mxCell id="MnhJsnDO0eoFPCqQJyrO-5" value="&lt;span style=&quot;font-size: 14px&quot;&gt;SALE &amp;amp; DISTRIBUTION&lt;/span&gt;" style="rounded=0;whiteSpace=wrap;html=1;fontFamily=Inter;verticalAlign=top;align=center;spacingLeft=6;fontStyle=1;fontSize=14;fontSource=https%3A%2F%2Ffonts.googleapis.com%2Fcss%3Ffamily%3DInter;" parent="KKGqycOkMeRsJXnEsVrt-1" vertex="1">
          <mxGeometry x="-719.48" y="296" width="430" height="150" as="geometry" />
        </mxCell>
        <mxCell id="MnhJsnDO0eoFPCqQJyrO-6" value="Partnership Distribution" style="rounded=1;whiteSpace=wrap;html=1;fontFamily=Inter;fontSource=https%3A%2F%2Ffonts.googleapis.com%2Fcss%3Ffamily%3DInter;fontStyle=0;labelBackgroundColor=none;labelBorderColor=none;" parent="KKGqycOkMeRsJXnEsVrt-1" vertex="1">
          <mxGeometry x="-699.48" y="336" width="150" height="40" as="geometry" />
        </mxCell>
        <mxCell id="MnhJsnDO0eoFPCqQJyrO-7" value="Agency Distribution" style="rounded=1;whiteSpace=wrap;html=1;fontFamily=Inter;fontSource=https%3A%2F%2Ffonts.googleapis.com%2Fcss%3Ffamily%3DInter;fontStyle=0;labelBackgroundColor=none;labelBorderColor=none;" parent="KKGqycOkMeRsJXnEsVrt-1" vertex="1">
          <mxGeometry x="-699.48" y="386" width="150" height="40" as="geometry" />
        </mxCell>
        <mxCell id="MnhJsnDO0eoFPCqQJyrO-8" value="Distribution Strategies &amp;amp; Support" style="rounded=1;whiteSpace=wrap;html=1;fontFamily=Inter;fontSource=https%3A%2F%2Ffonts.googleapis.com%2Fcss%3Ffamily%3DInter;fontStyle=0;labelBackgroundColor=none;labelBorderColor=none;" parent="KKGqycOkMeRsJXnEsVrt-1" vertex="1">
          <mxGeometry x="-459.48" y="336" width="150" height="40" as="geometry" />
        </mxCell>
        <mxCell id="MnhJsnDO0eoFPCqQJyrO-9" value="Pru Academy" style="rounded=1;whiteSpace=wrap;html=1;fontFamily=Inter;fontSource=https%3A%2F%2Ffonts.googleapis.com%2Fcss%3Ffamily%3DInter;fontStyle=0;labelBackgroundColor=none;labelBorderColor=none;" parent="KKGqycOkMeRsJXnEsVrt-1" vertex="1">
          <mxGeometry x="-459.48" y="386" width="150" height="40" as="geometry" />
        </mxCell>
        <mxCell id="MnhJsnDO0eoFPCqQJyrO-10" value="" style="shape=flexArrow;endArrow=classic;html=1;rounded=0;fontFamily=Inter;fontSource=https%3A%2F%2Ffonts.googleapis.com%2Fcss%3Ffamily%3DInter;fontSize=14;endWidth=19.310344827586206;endSize=8.262068965517242;width=24.137931034482758;fillColor=#fff2cc;strokeColor=#d6b656;" parent="KKGqycOkMeRsJXnEsVrt-1" edge="1">
          <mxGeometry width="50" height="50" relative="1" as="geometry">
            <mxPoint x="-470.48" y="381" as="sourcePoint" />
            <mxPoint x="-540.48" y="381.30999999999995" as="targetPoint" />
          </mxGeometry>
        </mxCell>
        <mxCell id="MnhJsnDO0eoFPCqQJyrO-11" value="" style="shape=flexArrow;endArrow=classic;html=1;rounded=0;fontFamily=Inter;fontSource=https%3A%2F%2Ffonts.googleapis.com%2Fcss%3Ffamily%3DInter;fontSize=14;endWidth=19.310344827586206;endSize=8.262068965517242;width=24.137931034482758;fillColor=#fff2cc;strokeColor=#d6b656;" parent="KKGqycOkMeRsJXnEsVrt-1" edge="1">
          <mxGeometry width="50" height="50" relative="1" as="geometry">
            <mxPoint x="-209.48" y="371" as="sourcePoint" />
            <mxPoint x="-279.48" y="371.30999999999995" as="targetPoint" />
          </mxGeometry>
        </mxCell>
        <mxCell id="MnhJsnDO0eoFPCqQJyrO-12" value="Policy Servicing" style="rounded=1;whiteSpace=wrap;html=1;fontFamily=Inter;fontSource=https%3A%2F%2Ffonts.googleapis.com%2Fcss%3Ffamily%3DInter;" parent="KKGqycOkMeRsJXnEsVrt-1" vertex="1">
          <mxGeometry x="-9.47999999999999" y="386" width="150" height="40" as="geometry" />
        </mxCell>
        <mxCell id="MnhJsnDO0eoFPCqQJyrO-13" value="Claim" style="rounded=1;whiteSpace=wrap;html=1;fontFamily=Inter;fontSource=https%3A%2F%2Ffonts.googleapis.com%2Fcss%3Ffamily%3DInter;" parent="KKGqycOkMeRsJXnEsVrt-1" vertex="1">
          <mxGeometry x="160.52" y="336" width="150" height="40" as="geometry" />
        </mxCell>
        <mxCell id="MnhJsnDO0eoFPCqQJyrO-14" value="Business &amp;amp; Operation Functions" style="text;html=1;strokeColor=none;fillColor=#e1d5e7;align=center;verticalAlign=middle;whiteSpace=wrap;rounded=0;dashed=1;labelBackgroundColor=none;labelBorderColor=none;fontFamily=Inter;fontSource=https%3A%2F%2Ffonts.googleapis.com%2Fcss%3Ffamily%3DInter;fontSize=14;fontStyle=1;rotation=-90;fontColor=#4C0099;spacingLeft=5;spacingRight=5;" parent="KKGqycOkMeRsJXnEsVrt-1" vertex="1">
          <mxGeometry x="-874" y="346.73" width="196.55" height="47.5" as="geometry" />
        </mxCell>
        <mxCell id="MnhJsnDO0eoFPCqQJyrO-15" value="&lt;span style=&quot;font-size: 20px;&quot;&gt;CUSTOMER&lt;/span&gt;" style="rounded=0;whiteSpace=wrap;html=1;fontFamily=Helvetica;verticalAlign=middle;align=center;spacingLeft=6;fontStyle=1;fontSize=20;fillColor=#fad9d5;strokeColor=#ae4132;" parent="KKGqycOkMeRsJXnEsVrt-1" vertex="1">
          <mxGeometry x="-799.48" y="150" width="1520" height="40" as="geometry" />
        </mxCell>
        <mxCell id="MnhJsnDO0eoFPCqQJyrO-16" value="" style="shape=flexArrow;endArrow=classic;startArrow=classic;html=1;rounded=0;fontFamily=Inter;fontSource=https%3A%2F%2Ffonts.googleapis.com%2Fcss%3Ffamily%3DInter;fontSize=14;fontColor=#4C0099;width=26;endSize=7.055172413793104;fillColor=#fff2cc;strokeColor=#d6b656;startSize=7.055172413793104;" parent="KKGqycOkMeRsJXnEsVrt-1" edge="1">
          <mxGeometry width="100" height="100" relative="1" as="geometry">
            <mxPoint x="-519.48" y="265" as="sourcePoint" />
            <mxPoint x="-519.48" y="195" as="targetPoint" />
          </mxGeometry>
        </mxCell>
        <mxCell id="MnhJsnDO0eoFPCqQJyrO-17" value="" style="shape=flexArrow;endArrow=classic;startArrow=classic;html=1;rounded=0;fontFamily=Inter;fontSource=https%3A%2F%2Ffonts.googleapis.com%2Fcss%3Ffamily%3DInter;fontSize=14;fontColor=#4C0099;width=26;endSize=7.055172413793104;fillColor=#fff2cc;strokeColor=#d6b656;startSize=7.055172413793104;" parent="KKGqycOkMeRsJXnEsVrt-1" edge="1">
          <mxGeometry width="100" height="100" relative="1" as="geometry">
            <mxPoint x="80.52000000000001" y="265" as="sourcePoint" />
            <mxPoint x="80.52000000000001" y="195" as="targetPoint" />
          </mxGeometry>
        </mxCell>
        <mxCell id="MnhJsnDO0eoFPCqQJyrO-19" value="PA E-Form&lt;br&gt;PowerApp+SharePoint" style="rounded=1;whiteSpace=wrap;html=1;fontFamily=Inter;fontSource=https%3A%2F%2Ffonts.googleapis.com%2Fcss%3Ffamily%3DInter;fontStyle=0;labelBackgroundColor=none;labelBorderColor=none;fillColor=#d5e8d4;strokeColor=#82b366;fontColor=#006600;shadow=1;" parent="KKGqycOkMeRsJXnEsVrt-1" vertex="1">
          <mxGeometry x="-6.47999999999999" y="611" width="150" height="40" as="geometry" />
        </mxCell>
        <mxCell id="MnhJsnDO0eoFPCqQJyrO-20" value="System &amp;amp; Applications" style="text;html=1;align=center;verticalAlign=middle;whiteSpace=wrap;rounded=0;dashed=1;labelBackgroundColor=none;labelBorderColor=none;fontFamily=Inter;fontSource=https%3A%2F%2Ffonts.googleapis.com%2Fcss%3Ffamily%3DInter;fontSize=14;fontStyle=1;rotation=-90;spacingLeft=5;spacingRight=5;fillColor=#E6E6E6;strokeColor=none;" parent="KKGqycOkMeRsJXnEsVrt-1" vertex="1">
          <mxGeometry x="-934.36" y="636.43" width="317.3" height="47.5" as="geometry" />
        </mxCell>
        <mxCell id="MnhJsnDO0eoFPCqQJyrO-23" value="" style="shape=flexArrow;endArrow=classic;html=1;rounded=0;fontFamily=Inter;fontSource=https%3A%2F%2Ffonts.googleapis.com%2Fcss%3Ffamily%3DInter;fontSize=14;endWidth=22;endSize=8.77;width=30;fillColor=#CCCCCC;strokeColor=#36393d;dashed=1;" parent="KKGqycOkMeRsJXnEsVrt-1" edge="1">
          <mxGeometry width="50" height="50" relative="1" as="geometry">
            <mxPoint x="-382.52" y="510" as="sourcePoint" />
            <mxPoint x="-384" y="453.30999999999995" as="targetPoint" />
          </mxGeometry>
        </mxCell>
        <mxCell id="MnhJsnDO0eoFPCqQJyrO-24" value="" style="shape=flexArrow;endArrow=classic;html=1;rounded=0;fontFamily=Inter;fontSource=https%3A%2F%2Ffonts.googleapis.com%2Fcss%3Ffamily%3DInter;fontSize=14;endWidth=22;endSize=8.77;width=30;fillColor=#CCCCCC;strokeColor=#36393d;dashed=1;" parent="KKGqycOkMeRsJXnEsVrt-1" edge="1">
          <mxGeometry width="50" height="50" relative="1" as="geometry">
            <mxPoint x="67.47999999999999" y="508.69" as="sourcePoint" />
            <mxPoint x="65.99999999999997" y="451.99999999999994" as="targetPoint" />
          </mxGeometry>
        </mxCell>
        <mxCell id="MnhJsnDO0eoFPCqQJyrO-25" value="" style="shape=flexArrow;endArrow=classic;html=1;rounded=0;fontFamily=Inter;fontSource=https%3A%2F%2Ffonts.googleapis.com%2Fcss%3Ffamily%3DInter;fontSize=14;endWidth=22;endSize=8.77;width=30;fillColor=#CCCCCC;strokeColor=#36393d;dashed=1;" parent="KKGqycOkMeRsJXnEsVrt-1" edge="1">
          <mxGeometry width="50" height="50" relative="1" as="geometry">
            <mxPoint x="-112.51999999999998" y="508.69000000000005" as="sourcePoint" />
            <mxPoint x="-114" y="452" as="targetPoint" />
          </mxGeometry>
        </mxCell>
        <mxCell id="MnhJsnDO0eoFPCqQJyrO-26" value="" style="shape=flexArrow;endArrow=classic;html=1;rounded=0;fontFamily=Inter;fontSource=https%3A%2F%2Ffonts.googleapis.com%2Fcss%3Ffamily%3DInter;fontSize=14;endWidth=22;endSize=8.77;width=30;fillColor=#CCCCCC;strokeColor=#36393d;dashed=1;" parent="KKGqycOkMeRsJXnEsVrt-1" edge="1">
          <mxGeometry width="50" height="50" relative="1" as="geometry">
            <mxPoint x="-622.52" y="510" as="sourcePoint" />
            <mxPoint x="-624" y="453.30999999999995" as="targetPoint" />
          </mxGeometry>
        </mxCell>
        <mxCell id="MnhJsnDO0eoFPCqQJyrO-27" value="Pulse App" style="rounded=1;whiteSpace=wrap;html=1;fontFamily=Inter;fontSource=https%3A%2F%2Ffonts.googleapis.com%2Fcss%3Ffamily%3DInter;fontStyle=0;labelBackgroundColor=none;labelBorderColor=none;fillColor=#ffcccc;strokeColor=#36393d;shadow=1;" parent="KKGqycOkMeRsJXnEsVrt-1" vertex="1">
          <mxGeometry x="546" y="520" width="150" height="40" as="geometry" />
        </mxCell>
        <mxCell id="MnhJsnDO0eoFPCqQJyrO-28" value="DPAS" style="rounded=1;whiteSpace=wrap;html=1;fontFamily=Inter;fontSource=https%3A%2F%2Ffonts.googleapis.com%2Fcss%3Ffamily%3DInter;fontStyle=0;labelBackgroundColor=none;labelBorderColor=none;fillColor=#FFCCCC;strokeColor=#36393d;shadow=1;" parent="KKGqycOkMeRsJXnEsVrt-1" vertex="1">
          <mxGeometry x="546" y="570" width="150" height="40" as="geometry" />
        </mxCell>
        <mxCell id="MnhJsnDO0eoFPCqQJyrO-29" value="PruForce" style="rounded=1;whiteSpace=wrap;html=1;fontFamily=Inter;fontSource=https%3A%2F%2Ffonts.googleapis.com%2Fcss%3Ffamily%3DInter;fontStyle=0;labelBackgroundColor=none;labelBorderColor=none;fillColor=#f5f5f5;strokeColor=#666666;fontColor=#333333;dashed=1;shadow=1;" parent="KKGqycOkMeRsJXnEsVrt-1" vertex="1">
          <mxGeometry x="-451" y="760" width="150" height="40" as="geometry" />
        </mxCell>
        <mxCell id="MnhJsnDO0eoFPCqQJyrO-30" value="" style="shape=flexArrow;endArrow=classic;startArrow=classic;html=1;rounded=0;fontFamily=Inter;fontSource=https%3A%2F%2Ffonts.googleapis.com%2Fcss%3Ffamily%3DInter;fontSize=14;fontColor=#4C0099;width=26;endSize=7.055172413793104;fillColor=#fff2cc;strokeColor=#d6b656;startSize=7.055172413793104;" parent="KKGqycOkMeRsJXnEsVrt-1" edge="1">
          <mxGeometry width="100" height="100" relative="1" as="geometry">
            <mxPoint x="620.5" y="510" as="sourcePoint" />
            <mxPoint x="621" y="190" as="targetPoint" />
          </mxGeometry>
        </mxCell>
        <mxCell id="MnhJsnDO0eoFPCqQJyrO-31" value="OnePulse Kafka Topics" style="text;html=1;align=center;verticalAlign=middle;whiteSpace=wrap;rounded=0;dashed=1;labelBackgroundColor=none;labelBorderColor=none;fontFamily=Inter;fontSource=https%3A%2F%2Ffonts.googleapis.com%2Fcss%3Ffamily%3DInter;fontSize=14;fontStyle=1;rotation=-90;spacingLeft=5;spacingRight=5;fillColor=#FFCCCC;strokeColor=none;" parent="KKGqycOkMeRsJXnEsVrt-1" vertex="1">
          <mxGeometry x="351.75" y="636.75" width="316" height="47.5" as="geometry" />
        </mxCell>
        <mxCell id="MnhJsnDO0eoFPCqQJyrO-32" value="" style="shape=flexArrow;endArrow=classic;html=1;rounded=0;fontFamily=Inter;fontSource=https%3A%2F%2Ffonts.googleapis.com%2Fcss%3Ffamily%3DInter;fontSize=14;endWidth=22;endSize=8.77;width=30;fillColor=#CCCCCC;strokeColor=#36393d;dashed=1;" parent="KKGqycOkMeRsJXnEsVrt-1" edge="1">
          <mxGeometry width="50" height="50" relative="1" as="geometry">
            <mxPoint x="470" y="559" as="sourcePoint" />
            <mxPoint x="350" y="559" as="targetPoint" />
          </mxGeometry>
        </mxCell>
        <mxCell id="MnhJsnDO0eoFPCqQJyrO-33" value="Microsite" style="rounded=1;whiteSpace=wrap;html=1;fontFamily=Inter;fontSource=https%3A%2F%2Ffonts.googleapis.com%2Fcss%3Ffamily%3DInter;fontStyle=0;labelBackgroundColor=none;labelBorderColor=none;fillColor=#d5e8d4;strokeColor=#82b366;shadow=1;fontColor=#006600;" parent="KKGqycOkMeRsJXnEsVrt-1" vertex="1">
          <mxGeometry x="546" y="620" width="150" height="40" as="geometry" />
        </mxCell>
        <mxCell id="MnhJsnDO0eoFPCqQJyrO-34" value="Semi-Automated Workflow (SAWF)" style="rounded=1;whiteSpace=wrap;html=1;fontFamily=Inter;fontSource=https%3A%2F%2Ffonts.googleapis.com%2Fcss%3Ffamily%3DInter;fontStyle=0;labelBackgroundColor=none;labelBorderColor=none;fillColor=#d5e8d4;strokeColor=#82b366;fontColor=#006600;shadow=1;" parent="KKGqycOkMeRsJXnEsVrt-1" vertex="1">
          <mxGeometry x="-176.48000000000002" y="660" width="150" height="40" as="geometry" />
        </mxCell>
        <mxCell id="MetJd-90sVrNVzVsXYjA-0" value="" style="rounded=0;whiteSpace=wrap;html=1;dashed=1;labelBackgroundColor=none;labelBorderColor=none;fontFamily=Inter;fontSource=https%3A%2F%2Ffonts.googleapis.com%2Fcss%3Ffamily%3DInter;fontSize=14;fontColor=#FFFFCC;fillColor=#FFFF99;" parent="KKGqycOkMeRsJXnEsVrt-1" vertex="1">
          <mxGeometry x="-799.48" y="890" width="1520" height="210" as="geometry" />
        </mxCell>
        <mxCell id="MetJd-90sVrNVzVsXYjA-1" value="RISK &amp;amp; COMPLIANCE" style="rounded=0;whiteSpace=wrap;html=1;fontFamily=Inter;verticalAlign=top;align=center;spacingLeft=6;fontStyle=1;fontSize=14;fontSource=https%3A%2F%2Ffonts.googleapis.com%2Fcss%3Ffamily%3DInter;" parent="KKGqycOkMeRsJXnEsVrt-1" vertex="1">
          <mxGeometry x="-189.48" y="919.5899999999999" width="350" height="150" as="geometry" />
        </mxCell>
        <mxCell id="MetJd-90sVrNVzVsXYjA-2" value="Legal" style="rounded=1;whiteSpace=wrap;html=1;fontFamily=Inter;fontSource=https%3A%2F%2Ffonts.googleapis.com%2Fcss%3Ffamily%3DInter;fontStyle=0;labelBackgroundColor=none;labelBorderColor=none;" parent="KKGqycOkMeRsJXnEsVrt-1" vertex="1">
          <mxGeometry x="-169.48" y="959.5899999999999" width="150" height="40" as="geometry" />
        </mxCell>
        <mxCell id="MetJd-90sVrNVzVsXYjA-3" value="Risk &amp;amp; Compliance" style="rounded=1;whiteSpace=wrap;html=1;fontFamily=Inter;fontSource=https%3A%2F%2Ffonts.googleapis.com%2Fcss%3Ffamily%3DInter;fontStyle=0;labelBackgroundColor=none;labelBorderColor=none;" parent="KKGqycOkMeRsJXnEsVrt-1" vertex="1">
          <mxGeometry x="-169.48" y="1009.5899999999999" width="150" height="40" as="geometry" />
        </mxCell>
        <mxCell id="MetJd-90sVrNVzVsXYjA-4" value="IT Security &amp;amp; Governance" style="rounded=1;whiteSpace=wrap;html=1;fontFamily=Inter;fontSource=https%3A%2F%2Ffonts.googleapis.com%2Fcss%3Ffamily%3DInter;fontStyle=0;labelBackgroundColor=none;labelBorderColor=none;" parent="KKGqycOkMeRsJXnEsVrt-1" vertex="1">
          <mxGeometry x="-9.47999999999999" y="959.5899999999999" width="150" height="40" as="geometry" />
        </mxCell>
        <mxCell id="MetJd-90sVrNVzVsXYjA-5" value="Data Governance" style="rounded=1;whiteSpace=wrap;html=1;fontFamily=Inter;fontSource=https%3A%2F%2Ffonts.googleapis.com%2Fcss%3Ffamily%3DInter;fontStyle=0;labelBackgroundColor=none;labelBorderColor=none;" parent="KKGqycOkMeRsJXnEsVrt-1" vertex="1">
          <mxGeometry x="-9.47999999999999" y="1009.5899999999999" width="150" height="40" as="geometry" />
        </mxCell>
        <mxCell id="MetJd-90sVrNVzVsXYjA-6" value="FINANCE" style="rounded=0;whiteSpace=wrap;html=1;fontFamily=Inter;verticalAlign=top;align=center;spacingLeft=6;fontStyle=1;fontSize=14;fontSource=https%3A%2F%2Ffonts.googleapis.com%2Fcss%3Ffamily%3DInter;" parent="KKGqycOkMeRsJXnEsVrt-1" vertex="1">
          <mxGeometry x="180.52" y="919.5899999999999" width="510" height="150" as="geometry" />
        </mxCell>
        <mxCell id="MetJd-90sVrNVzVsXYjA-7" value="Financial Reporting" style="rounded=1;whiteSpace=wrap;html=1;fontFamily=Inter;fontSource=https%3A%2F%2Ffonts.googleapis.com%2Fcss%3Ffamily%3DInter;fontStyle=0;labelBackgroundColor=none;labelBorderColor=none;" parent="KKGqycOkMeRsJXnEsVrt-1" vertex="1">
          <mxGeometry x="200.52" y="959.5899999999999" width="150" height="40" as="geometry" />
        </mxCell>
        <mxCell id="MetJd-90sVrNVzVsXYjA-8" value="Actuarial Reporting" style="rounded=1;whiteSpace=wrap;html=1;fontFamily=Inter;fontSource=https%3A%2F%2Ffonts.googleapis.com%2Fcss%3Ffamily%3DInter;fontStyle=0;labelBackgroundColor=none;labelBorderColor=none;" parent="KKGqycOkMeRsJXnEsVrt-1" vertex="1">
          <mxGeometry x="200.52" y="1009.5899999999999" width="150" height="40" as="geometry" />
        </mxCell>
        <mxCell id="MetJd-90sVrNVzVsXYjA-9" value="Accounting" style="rounded=1;whiteSpace=wrap;html=1;fontFamily=Inter;fontSource=https%3A%2F%2Ffonts.googleapis.com%2Fcss%3Ffamily%3DInter;fontStyle=0;labelBackgroundColor=none;labelBorderColor=none;" parent="KKGqycOkMeRsJXnEsVrt-1" vertex="1">
          <mxGeometry x="360.52" y="959.5899999999999" width="150" height="40" as="geometry" />
        </mxCell>
        <mxCell id="MetJd-90sVrNVzVsXYjA-10" value="Actuary: Product &amp;amp; Pricing" style="rounded=1;whiteSpace=wrap;html=1;fontFamily=Inter;fontSource=https%3A%2F%2Ffonts.googleapis.com%2Fcss%3Ffamily%3DInter;fontStyle=0;labelBackgroundColor=none;labelBorderColor=none;" parent="KKGqycOkMeRsJXnEsVrt-1" vertex="1">
          <mxGeometry x="360.52" y="1009.5899999999999" width="150" height="40" as="geometry" />
        </mxCell>
        <mxCell id="MetJd-90sVrNVzVsXYjA-11" value="HUMAN RESOURCE" style="rounded=0;whiteSpace=wrap;html=1;fontFamily=Inter;verticalAlign=top;align=center;spacingLeft=6;fontStyle=1;fontSize=14;fontSource=https%3A%2F%2Ffonts.googleapis.com%2Fcss%3Ffamily%3DInter;" parent="KKGqycOkMeRsJXnEsVrt-1" vertex="1">
          <mxGeometry x="-719.48" y="919.59" width="510" height="150" as="geometry" />
        </mxCell>
        <mxCell id="MetJd-90sVrNVzVsXYjA-12" value="Recuirment" style="rounded=1;whiteSpace=wrap;html=1;fontFamily=Inter;fontSource=https%3A%2F%2Ffonts.googleapis.com%2Fcss%3Ffamily%3DInter;fontStyle=0;labelBackgroundColor=none;labelBorderColor=none;" parent="KKGqycOkMeRsJXnEsVrt-1" vertex="1">
          <mxGeometry x="-699.48" y="959.5900000000001" width="150" height="40" as="geometry" />
        </mxCell>
        <mxCell id="MetJd-90sVrNVzVsXYjA-13" value="Communication &amp;amp; Engagement" style="rounded=1;whiteSpace=wrap;html=1;fontFamily=Inter;fontSource=https%3A%2F%2Ffonts.googleapis.com%2Fcss%3Ffamily%3DInter;fontStyle=0;labelBackgroundColor=none;labelBorderColor=none;" parent="KKGqycOkMeRsJXnEsVrt-1" vertex="1">
          <mxGeometry x="-699.48" y="1009.5900000000001" width="150" height="40" as="geometry" />
        </mxCell>
        <mxCell id="MetJd-90sVrNVzVsXYjA-14" value="Compensation &amp;amp; Benefits" style="rounded=1;whiteSpace=wrap;html=1;fontFamily=Inter;fontSource=https%3A%2F%2Ffonts.googleapis.com%2Fcss%3Ffamily%3DInter;fontStyle=0;labelBackgroundColor=none;labelBorderColor=none;" parent="KKGqycOkMeRsJXnEsVrt-1" vertex="1">
          <mxGeometry x="-539.48" y="959.5900000000001" width="150" height="40" as="geometry" />
        </mxCell>
        <mxCell id="MetJd-90sVrNVzVsXYjA-15" value="Business Strategy &amp;amp; People Partner" style="rounded=1;whiteSpace=wrap;html=1;fontFamily=Inter;fontSource=https%3A%2F%2Ffonts.googleapis.com%2Fcss%3Ffamily%3DInter;fontStyle=0;labelBackgroundColor=none;labelBorderColor=none;" parent="KKGqycOkMeRsJXnEsVrt-1" vertex="1">
          <mxGeometry x="-539.48" y="1009.5900000000001" width="150" height="40" as="geometry" />
        </mxCell>
        <mxCell id="MetJd-90sVrNVzVsXYjA-16" value="Business Support Functions" style="text;html=1;strokeColor=none;fillColor=#FFFFCC;align=center;verticalAlign=middle;whiteSpace=wrap;rounded=0;dashed=1;labelBackgroundColor=none;labelBorderColor=none;fontFamily=Inter;fontSource=https%3A%2F%2Ffonts.googleapis.com%2Fcss%3Ffamily%3DInter;fontSize=14;fontStyle=1;rotation=-90;fontColor=#999900;spacingLeft=5;spacingRight=5;" parent="KKGqycOkMeRsJXnEsVrt-1" vertex="1">
          <mxGeometry x="-878.01" y="971.26" width="206.54" height="47.5" as="geometry" />
        </mxCell>
        <mxCell id="MetJd-90sVrNVzVsXYjA-17" value="Learning &amp;amp; Development" style="rounded=1;whiteSpace=wrap;html=1;fontFamily=Inter;fontSource=https%3A%2F%2Ffonts.googleapis.com%2Fcss%3Ffamily%3DInter;fontStyle=0;labelBackgroundColor=none;labelBorderColor=none;" parent="KKGqycOkMeRsJXnEsVrt-1" vertex="1">
          <mxGeometry x="-379.48" y="959.5900000000001" width="150" height="40" as="geometry" />
        </mxCell>
        <mxCell id="MetJd-90sVrNVzVsXYjA-18" value="Property" style="rounded=1;whiteSpace=wrap;html=1;fontFamily=Inter;fontSource=https%3A%2F%2Ffonts.googleapis.com%2Fcss%3Ffamily%3DInter;fontStyle=0;labelBackgroundColor=none;labelBorderColor=none;" parent="KKGqycOkMeRsJXnEsVrt-1" vertex="1">
          <mxGeometry x="520.52" y="959.5899999999999" width="150" height="40" as="geometry" />
        </mxCell>
        <mxCell id="MetJd-90sVrNVzVsXYjA-19" value="Procurement" style="rounded=1;whiteSpace=wrap;html=1;fontFamily=Inter;fontSource=https%3A%2F%2Ffonts.googleapis.com%2Fcss%3Ffamily%3DInter;fontStyle=0;labelBackgroundColor=none;labelBorderColor=none;" parent="KKGqycOkMeRsJXnEsVrt-1" vertex="1">
          <mxGeometry x="520.52" y="1009.5899999999999" width="150" height="40" as="geometry" />
        </mxCell>
        <mxCell id="MetJd-90sVrNVzVsXYjA-20" value="" style="rounded=0;whiteSpace=wrap;html=1;dashed=1;labelBackgroundColor=none;labelBorderColor=none;fontFamily=Inter;fontSource=https%3A%2F%2Ffonts.googleapis.com%2Fcss%3Ffamily%3DInter;fontSize=14;fontColor=#333333;fillColor=#f5f5f5;strokeColor=#666666;" parent="KKGqycOkMeRsJXnEsVrt-1" vertex="1">
          <mxGeometry x="-799.48" y="1130" width="1515.48" height="270" as="geometry" />
        </mxCell>
        <mxCell id="MetJd-90sVrNVzVsXYjA-24" value="Policy Admin System" style="rounded=1;whiteSpace=wrap;html=1;fontFamily=Inter;fontSource=https%3A%2F%2Ffonts.googleapis.com%2Fcss%3Ffamily%3DInter;fontStyle=0;labelBackgroundColor=none;labelBorderColor=none;fillColor=#d5e8d4;strokeColor=#82b366;fontColor=#006600;shadow=1;" parent="KKGqycOkMeRsJXnEsVrt-1" vertex="1">
          <mxGeometry x="-176.48000000000002" y="1240" width="150" height="40" as="geometry" />
        </mxCell>
        <mxCell id="MetJd-90sVrNVzVsXYjA-25" value="Automation Service (SMS/Email)" style="rounded=1;whiteSpace=wrap;html=1;fontFamily=Inter;fontSource=https%3A%2F%2Ffonts.googleapis.com%2Fcss%3Ffamily%3DInter;fontStyle=0;labelBackgroundColor=none;labelBorderColor=none;fillColor=#d5e8d4;strokeColor=#82b366;fontColor=#006600;shadow=1;" parent="KKGqycOkMeRsJXnEsVrt-1" vertex="1">
          <mxGeometry x="-6.480000000000004" y="1340" width="150" height="40" as="geometry" />
        </mxCell>
        <mxCell id="MetJd-90sVrNVzVsXYjA-26" value="IAM Pru" style="rounded=1;whiteSpace=wrap;html=1;fontFamily=Inter;fontSource=https%3A%2F%2Ffonts.googleapis.com%2Fcss%3Ffamily%3DInter;fontStyle=0;labelBackgroundColor=none;labelBorderColor=none;fillColor=#ffcccc;strokeColor=#36393d;fontColor=default;shadow=1;" parent="KKGqycOkMeRsJXnEsVrt-1" vertex="1">
          <mxGeometry x="-6.480000000000004" y="1290" width="150" height="40" as="geometry" />
        </mxCell>
        <mxCell id="MetJd-90sVrNVzVsXYjA-27" value="PowerBI: Report / Dashboard / Dataset" style="rounded=1;whiteSpace=wrap;html=1;fontFamily=Inter;fontSource=https%3A%2F%2Ffonts.googleapis.com%2Fcss%3Ffamily%3DInter;fontStyle=0;labelBackgroundColor=none;labelBorderColor=none;fillColor=#b0e3e6;strokeColor=#0e8088;shadow=1;" parent="KKGqycOkMeRsJXnEsVrt-1" vertex="1">
          <mxGeometry x="-194" y="1150" width="884.52" height="30" as="geometry" />
        </mxCell>
        <mxCell id="MetJd-90sVrNVzVsXYjA-28" value="Automation Service (STP/ePolicy-Kit)" style="rounded=1;whiteSpace=wrap;html=1;fontFamily=Inter;fontSource=https%3A%2F%2Ffonts.googleapis.com%2Fcss%3Ffamily%3DInter;fontStyle=0;labelBackgroundColor=none;labelBorderColor=none;fillColor=#d5e8d4;strokeColor=#82b366;fontColor=#006600;shadow=1;" parent="KKGqycOkMeRsJXnEsVrt-1" vertex="1">
          <mxGeometry x="-176.48000000000002" y="1340" width="150" height="40" as="geometry" />
        </mxCell>
        <mxCell id="MetJd-90sVrNVzVsXYjA-31" value="O365 / SharePoint" style="rounded=1;whiteSpace=wrap;html=1;fontFamily=Inter;fontSource=https%3A%2F%2Ffonts.googleapis.com%2Fcss%3Ffamily%3DInter;fontStyle=0;labelBackgroundColor=none;labelBorderColor=none;fillColor=#b0e3e6;strokeColor=#0e8088;shadow=1;" parent="KKGqycOkMeRsJXnEsVrt-1" vertex="1">
          <mxGeometry x="-724" y="1190" width="1414.52" height="30" as="geometry" />
        </mxCell>
        <mxCell id="MetJd-90sVrNVzVsXYjA-32" value="PA E-Form&lt;br&gt;PowerApp+SharePoint" style="rounded=1;whiteSpace=wrap;html=1;fontFamily=Inter;fontSource=https%3A%2F%2Ffonts.googleapis.com%2Fcss%3Ffamily%3DInter;fontStyle=0;labelBackgroundColor=none;labelBorderColor=none;fillColor=#d5e8d4;strokeColor=#82b366;fontColor=#006600;shadow=1;" parent="KKGqycOkMeRsJXnEsVrt-1" vertex="1">
          <mxGeometry x="-6.47999999999999" y="1240" width="150" height="40" as="geometry" />
        </mxCell>
        <mxCell id="MetJd-90sVrNVzVsXYjA-33" value="System &amp;amp; Applications" style="text;html=1;align=center;verticalAlign=middle;whiteSpace=wrap;rounded=0;dashed=1;labelBackgroundColor=none;labelBorderColor=none;fontFamily=Inter;fontSource=https%3A%2F%2Ffonts.googleapis.com%2Fcss%3Ffamily%3DInter;fontSize=14;fontStyle=1;rotation=-90;spacingLeft=5;spacingRight=5;fillColor=#E6E6E6;strokeColor=none;" parent="KKGqycOkMeRsJXnEsVrt-1" vertex="1">
          <mxGeometry x="-909.47" y="1241.53" width="267.5" height="47.5" as="geometry" />
        </mxCell>
        <mxCell id="MetJd-90sVrNVzVsXYjA-40" value="FISERV" style="rounded=1;whiteSpace=wrap;html=1;fontFamily=Inter;fontSource=https%3A%2F%2Ffonts.googleapis.com%2Fcss%3Ffamily%3DInter;fontStyle=0;labelBackgroundColor=none;labelBorderColor=none;fillColor=#ffcccc;strokeColor=#36393d;fontColor=default;shadow=1;" parent="KKGqycOkMeRsJXnEsVrt-1" vertex="1">
          <mxGeometry x="-176.48000000000002" y="1290" width="150" height="40" as="geometry" />
        </mxCell>
        <mxCell id="MetJd-90sVrNVzVsXYjA-41" value="" style="shape=flexArrow;endArrow=classic;html=1;rounded=0;fontFamily=Inter;fontSource=https%3A%2F%2Ffonts.googleapis.com%2Fcss%3Ffamily%3DInter;fontSize=14;endWidth=22;endSize=8.77;width=30;fillColor=#CCCCCC;strokeColor=#36393d;dashed=1;" parent="KKGqycOkMeRsJXnEsVrt-1" edge="1">
          <mxGeometry width="50" height="50" relative="1" as="geometry">
            <mxPoint x="-463.74" y="1136.69" as="sourcePoint" />
            <mxPoint x="-465.22" y="1080" as="targetPoint" />
          </mxGeometry>
        </mxCell>
        <mxCell id="MetJd-90sVrNVzVsXYjA-42" value="myHR (WorkDay)" style="rounded=1;whiteSpace=wrap;html=1;fontFamily=Inter;fontSource=https%3A%2F%2Ffonts.googleapis.com%2Fcss%3Ffamily%3DInter;fontStyle=0;labelBackgroundColor=none;labelBorderColor=none;fillColor=#ffcccc;strokeColor=#36393d;shadow=1;" parent="KKGqycOkMeRsJXnEsVrt-1" vertex="1">
          <mxGeometry x="-696.48" y="1240" width="150" height="40" as="geometry" />
        </mxCell>
        <mxCell id="MetJd-90sVrNVzVsXYjA-43" value="Cadena - HR Payroll System" style="rounded=1;whiteSpace=wrap;html=1;fontFamily=Inter;fontSource=https%3A%2F%2Ffonts.googleapis.com%2Fcss%3Ffamily%3DInter;fontStyle=0;labelBackgroundColor=none;labelBorderColor=none;fillColor=#cce5ff;strokeColor=#36393d;shadow=1;" parent="KKGqycOkMeRsJXnEsVrt-1" vertex="1">
          <mxGeometry x="-536.48" y="1240" width="150" height="40" as="geometry" />
        </mxCell>
        <mxCell id="MetJd-90sVrNVzVsXYjA-44" value="&lt;span&gt;Prophet&lt;br&gt;&lt;/span&gt;" style="rounded=1;whiteSpace=wrap;html=1;fontFamily=Inter;fontSource=https%3A%2F%2Ffonts.googleapis.com%2Fcss%3Ffamily%3DInter;fontStyle=0;labelBackgroundColor=none;labelBorderColor=none;fillColor=#cce5ff;strokeColor=#36393d;shadow=1;" parent="KKGqycOkMeRsJXnEsVrt-1" vertex="1">
          <mxGeometry x="360.52" y="1290" width="150" height="40" as="geometry" />
        </mxCell>
        <mxCell id="MetJd-90sVrNVzVsXYjA-45" value="&lt;span&gt;SUNGL&lt;br&gt;&lt;/span&gt;" style="rounded=1;whiteSpace=wrap;html=1;fontFamily=Inter;fontSource=https%3A%2F%2Ffonts.googleapis.com%2Fcss%3Ffamily%3DInter;fontStyle=0;labelBackgroundColor=none;labelBorderColor=none;fillColor=#cce5ff;strokeColor=#36393d;shadow=1;" parent="KKGqycOkMeRsJXnEsVrt-1" vertex="1">
          <mxGeometry x="360.52" y="1240" width="150" height="40" as="geometry" />
        </mxCell>
        <mxCell id="MetJd-90sVrNVzVsXYjA-46" value="&lt;span&gt;Coupa Risk Assess&lt;br&gt;&lt;/span&gt;" style="rounded=1;whiteSpace=wrap;html=1;fontFamily=Inter;fontSource=https%3A%2F%2Ffonts.googleapis.com%2Fcss%3Ffamily%3DInter;fontStyle=0;labelBackgroundColor=none;labelBorderColor=none;fillColor=#ffcccc;strokeColor=#36393d;shadow=1;" parent="KKGqycOkMeRsJXnEsVrt-1" vertex="1">
          <mxGeometry x="520.52" y="1240" width="150" height="40" as="geometry" />
        </mxCell>
        <mxCell id="MetJd-90sVrNVzVsXYjA-47" value="&lt;span&gt;Acumatica&lt;br&gt;&lt;/span&gt;" style="rounded=1;whiteSpace=wrap;html=1;fontFamily=Inter;fontSource=https%3A%2F%2Ffonts.googleapis.com%2Fcss%3Ffamily%3DInter;fontStyle=0;labelBackgroundColor=none;labelBorderColor=none;fillColor=#ffcccc;strokeColor=#36393d;shadow=1;" parent="KKGqycOkMeRsJXnEsVrt-1" vertex="1">
          <mxGeometry x="360.52" y="1340" width="150" height="40" as="geometry" />
        </mxCell>
        <mxCell id="MetJd-90sVrNVzVsXYjA-48" value="&lt;span&gt;PCA MI/KPI Reporting&lt;br&gt;&lt;/span&gt;" style="rounded=1;whiteSpace=wrap;html=1;fontFamily=Inter;fontSource=https%3A%2F%2Ffonts.googleapis.com%2Fcss%3Ffamily%3DInter;fontStyle=0;labelBackgroundColor=none;labelBorderColor=none;fillColor=#d5e8d4;strokeColor=#82b366;shadow=1;fontColor=#006600;" parent="KKGqycOkMeRsJXnEsVrt-1" vertex="1">
          <mxGeometry x="200.51999999999998" y="1240" width="150" height="40" as="geometry" />
        </mxCell>
        <mxCell id="gZFJq9-op53E9x2PI7HC-0" value="eAPS" style="rounded=1;whiteSpace=wrap;html=1;fontFamily=Inter;fontSource=https%3A%2F%2Ffonts.googleapis.com%2Fcss%3Ffamily%3DInter;fontStyle=0;labelBackgroundColor=none;labelBorderColor=none;fillColor=#d5e8d4;strokeColor=#82b366;shadow=1;fontColor=#006600;" parent="KKGqycOkMeRsJXnEsVrt-1" vertex="1">
          <mxGeometry x="546" y="670" width="150" height="40" as="geometry" />
        </mxCell>
        <mxCell id="gZFJq9-op53E9x2PI7HC-1" value="Distribution Portal" style="rounded=1;whiteSpace=wrap;html=1;fontFamily=Inter;fontSource=https%3A%2F%2Ffonts.googleapis.com%2Fcss%3Ffamily%3DInter;fontStyle=0;labelBackgroundColor=none;labelBorderColor=none;fillColor=#d5e8d4;strokeColor=#82b366;fontColor=#006600;shadow=1;" parent="KKGqycOkMeRsJXnEsVrt-1" vertex="1">
          <mxGeometry x="-696.48" y="710" width="150" height="40" as="geometry" />
        </mxCell>
        <mxCell id="gZFJq9-op53E9x2PI7HC-2" value="PCLAServices" style="rounded=1;whiteSpace=wrap;html=1;fontFamily=Inter;fontSource=https%3A%2F%2Ffonts.googleapis.com%2Fcss%3Ffamily%3DInter;fontStyle=0;labelBackgroundColor=none;labelBorderColor=none;fillColor=#d5e8d4;strokeColor=#82b366;shadow=1;fontColor=#006600;" parent="KKGqycOkMeRsJXnEsVrt-1" vertex="1">
          <mxGeometry x="546" y="720" width="150" height="40" as="geometry" />
        </mxCell>
        <mxCell id="gZFJq9-op53E9x2PI7HC-3" value="Prudential Website" style="rounded=1;whiteSpace=wrap;html=1;fontFamily=Inter;fontSource=https%3A%2F%2Ffonts.googleapis.com%2Fcss%3Ffamily%3DInter;fontStyle=0;labelBackgroundColor=none;labelBorderColor=none;fillColor=#d5e8d4;strokeColor=#82b366;fontColor=#006600;shadow=1;" parent="KKGqycOkMeRsJXnEsVrt-1" vertex="1">
          <mxGeometry x="-696.48" y="760" width="150" height="40" as="geometry" />
        </mxCell>
        <mxCell id="kFiXm6X60qzUMDx8Z_69-0" value="PCLA Enterprise Architecture Diagram" style="text;html=1;strokeColor=none;fillColor=none;align=left;verticalAlign=middle;whiteSpace=wrap;rounded=0;fontSize=34;fontFamily=Helvetica;fontStyle=1;fontColor=#D50000;sketch=0;shadow=0;" parent="KKGqycOkMeRsJXnEsVrt-1" vertex="1">
          <mxGeometry x="-800.48" y="20" width="769.48" height="50" as="geometry" />
        </mxCell>
        <mxCell id="kFiXm6X60qzUMDx8Z_69-4" value="Version: &lt;b&gt;1.0&lt;/b&gt;&lt;span style=&quot;white-space: pre;&quot;&gt; &lt;/span&gt;&lt;span style=&quot;white-space: pre;&quot;&gt; &lt;/span&gt;&lt;span style=&quot;white-space: pre;&quot;&gt; &lt;/span&gt;Author: &lt;b&gt;Vannak Suon&lt;/b&gt;" style="text;html=1;strokeColor=none;fillColor=none;align=left;verticalAlign=middle;whiteSpace=wrap;rounded=0;fontSize=14;fontFamily=Helvetica;fontStyle=0;fontColor=#4D4D4D;sketch=0;shadow=0;" parent="KKGqycOkMeRsJXnEsVrt-1" vertex="1">
          <mxGeometry x="-799.48" y="70" width="769.48" height="20" as="geometry" />
        </mxCell>
      </root>
    </mxGraphModel>
  </diagram>
  <diagram id="C3BL0AAN0VKol4_dss1b" name="PCLA Capabilities Mapping">
    <mxGraphModel dx="2249" dy="762" grid="1" gridSize="10" guides="1" tooltips="1" connect="1" arrows="1" fold="1" page="1" pageScale="1" pageWidth="827" pageHeight="1169" math="0" shadow="0">
      <root>
        <mxCell id="0" />
        <mxCell id="1" parent="0" />
        <mxCell id="JP-1suK7QW4_6E5fCLCh-34" value="DevOps Engineer" style="whiteSpace=wrap;html=1;verticalAlign=top;fontStyle=1;fontFamily=Poppins;fontSource=https%3A%2F%2Ffonts.googleapis.com%2Fcss%3Ffamily%3DPoppins;fontColor=#990000;fontSize=20;" parent="1" vertex="1">
          <mxGeometry x="640" y="20" width="220" height="250" as="geometry" />
        </mxCell>
        <mxCell id="JP-1suK7QW4_6E5fCLCh-16" value="Data Scientist" style="whiteSpace=wrap;html=1;verticalAlign=top;fontStyle=1;fontFamily=Poppins;fontSource=https%3A%2F%2Ffonts.googleapis.com%2Fcss%3Ffamily%3DPoppins;fontColor=#990000;fontSize=20;" parent="1" vertex="1">
          <mxGeometry x="-800" y="20" width="220" height="300" as="geometry" />
        </mxCell>
        <mxCell id="JP-1suK7QW4_6E5fCLCh-13" value="Data Engineer" style="whiteSpace=wrap;html=1;verticalAlign=top;fontStyle=1;fontFamily=Poppins;fontSource=https%3A%2F%2Ffonts.googleapis.com%2Fcss%3Ffamily%3DPoppins;fontColor=#990000;fontSize=20;" parent="1" vertex="1">
          <mxGeometry x="-320" y="20" width="220" height="200" as="geometry" />
        </mxCell>
        <mxCell id="JP-1suK7QW4_6E5fCLCh-14" value="Front-End Developer" style="whiteSpace=wrap;html=1;verticalAlign=top;fontStyle=1;fontFamily=Poppins;fontSource=https%3A%2F%2Ffonts.googleapis.com%2Fcss%3Ffamily%3DPoppins;fontColor=#990000;fontSize=20;" parent="1" vertex="1">
          <mxGeometry x="160" y="20" width="220" height="250" as="geometry" />
        </mxCell>
        <mxCell id="JP-1suK7QW4_6E5fCLCh-15" value="Back-End Developer" style="whiteSpace=wrap;html=1;verticalAlign=top;fontStyle=1;fontFamily=Poppins;fontSource=https%3A%2F%2Ffonts.googleapis.com%2Fcss%3Ffamily%3DPoppins;fontColor=#990000;fontSize=20;" parent="1" vertex="1">
          <mxGeometry x="400" y="20" width="220" height="300" as="geometry" />
        </mxCell>
        <mxCell id="JP-1suK7QW4_6E5fCLCh-12" value="Solution Analyst" style="whiteSpace=wrap;html=1;verticalAlign=top;fontStyle=1;fontFamily=Poppins;fontSource=https%3A%2F%2Ffonts.googleapis.com%2Fcss%3Ffamily%3DPoppins;fontColor=#990000;fontSize=20;" parent="1" vertex="1">
          <mxGeometry x="-560" y="20" width="220" height="350" as="geometry" />
        </mxCell>
        <mxCell id="gK_ERNJTbto_oaj90uAH-1" value="Application Code &amp;amp; Security" style="rounded=1;whiteSpace=wrap;html=1;fontFamily=Inter;fontSource=https%3A%2F%2Ffonts.googleapis.com%2Fcss%3Ffamily%3DInter;fontStyle=0;labelBackgroundColor=none;labelBorderColor=none;shadow=1;fillColor=#f5f5f5;fontColor=#333333;strokeColor=#666666;" parent="1" vertex="1">
          <mxGeometry x="180" y="60" width="180" height="40" as="geometry" />
        </mxCell>
        <mxCell id="gK_ERNJTbto_oaj90uAH-2" value="Artificial Intelligence" style="rounded=1;whiteSpace=wrap;html=1;fontFamily=Inter;fontSource=https%3A%2F%2Ffonts.googleapis.com%2Fcss%3Ffamily%3DInter;fontStyle=0;labelBackgroundColor=none;labelBorderColor=none;shadow=1;fillColor=#f5f5f5;fontColor=#333333;strokeColor=#666666;" parent="1" vertex="1">
          <mxGeometry x="-780" y="60" width="180" height="40" as="geometry" />
        </mxCell>
        <mxCell id="gK_ERNJTbto_oaj90uAH-4" value="Cloud Security" style="rounded=1;whiteSpace=wrap;html=1;fontFamily=Inter;fontSource=https%3A%2F%2Ffonts.googleapis.com%2Fcss%3Ffamily%3DInter;fontStyle=0;labelBackgroundColor=none;labelBorderColor=none;shadow=1;fillColor=#f5f5f5;fontColor=#333333;strokeColor=#666666;" parent="1" vertex="1">
          <mxGeometry x="660" y="160" width="180" height="40" as="geometry" />
        </mxCell>
        <mxCell id="gK_ERNJTbto_oaj90uAH-6" value="Cloud Enablement &amp;amp; Continuous Integration" style="rounded=1;whiteSpace=wrap;html=1;fontFamily=Inter;fontSource=https%3A%2F%2Ffonts.googleapis.com%2Fcss%3Ffamily%3DInter;fontStyle=0;labelBackgroundColor=none;labelBorderColor=none;shadow=1;fillColor=#f5f5f5;fontColor=#333333;strokeColor=#666666;" parent="1" vertex="1">
          <mxGeometry x="660" y="110" width="180" height="40" as="geometry" />
        </mxCell>
        <mxCell id="gK_ERNJTbto_oaj90uAH-7" value="DevOps" style="rounded=1;whiteSpace=wrap;html=1;fontFamily=Inter;fontSource=https%3A%2F%2Ffonts.googleapis.com%2Fcss%3Ffamily%3DInter;fontStyle=0;labelBackgroundColor=none;labelBorderColor=none;shadow=1;fillColor=#f5f5f5;fontColor=#333333;strokeColor=#666666;" parent="1" vertex="1">
          <mxGeometry x="660" y="60" width="180" height="40" as="geometry" />
        </mxCell>
        <mxCell id="gK_ERNJTbto_oaj90uAH-8" value="Data Protection" style="rounded=1;whiteSpace=wrap;html=1;fontFamily=Inter;fontSource=https%3A%2F%2Ffonts.googleapis.com%2Fcss%3Ffamily%3DInter;fontStyle=0;labelBackgroundColor=none;labelBorderColor=none;shadow=1;fillColor=#f5f5f5;fontColor=#333333;strokeColor=#666666;" parent="1" vertex="1">
          <mxGeometry x="420" y="160" width="180" height="40" as="geometry" />
        </mxCell>
        <mxCell id="gK_ERNJTbto_oaj90uAH-10" value="Digital Architecture Standards" style="rounded=1;whiteSpace=wrap;html=1;fontFamily=Inter;fontSource=https%3A%2F%2Ffonts.googleapis.com%2Fcss%3Ffamily%3DInter;fontStyle=0;labelBackgroundColor=none;labelBorderColor=none;shadow=1;fillColor=#f5f5f5;fontColor=#333333;strokeColor=#666666;" parent="1" vertex="1">
          <mxGeometry x="280" y="540" width="150" height="40" as="geometry" />
        </mxCell>
        <mxCell id="gK_ERNJTbto_oaj90uAH-11" value="Digital Integration &amp;amp; APIs" style="rounded=1;whiteSpace=wrap;html=1;fontFamily=Inter;fontSource=https%3A%2F%2Ffonts.googleapis.com%2Fcss%3Ffamily%3DInter;fontStyle=0;labelBackgroundColor=none;labelBorderColor=none;shadow=1;fillColor=#f5f5f5;fontColor=#333333;strokeColor=#666666;" parent="1" vertex="1">
          <mxGeometry x="290" y="630" width="150" height="40" as="geometry" />
        </mxCell>
        <mxCell id="gK_ERNJTbto_oaj90uAH-13" value="Infrastructure Management" style="rounded=1;whiteSpace=wrap;html=1;fontFamily=Inter;fontSource=https%3A%2F%2Ffonts.googleapis.com%2Fcss%3Ffamily%3DInter;fontStyle=0;labelBackgroundColor=none;labelBorderColor=none;shadow=1;fillColor=#f5f5f5;fontColor=#333333;strokeColor=#666666;" parent="1" vertex="1">
          <mxGeometry x="660" y="210" width="180" height="40" as="geometry" />
        </mxCell>
        <mxCell id="gK_ERNJTbto_oaj90uAH-14" value="Legacy Integration" style="rounded=1;whiteSpace=wrap;html=1;fontFamily=Inter;fontSource=https%3A%2F%2Ffonts.googleapis.com%2Fcss%3Ffamily%3DInter;fontStyle=0;labelBackgroundColor=none;labelBorderColor=none;shadow=1;fillColor=#f5f5f5;fontColor=#333333;strokeColor=#666666;" parent="1" vertex="1">
          <mxGeometry x="420" y="110" width="180" height="40" as="geometry" />
        </mxCell>
        <mxCell id="JP-1suK7QW4_6E5fCLCh-1" value="Requirement Gathering &amp;amp; Analysis" style="rounded=1;whiteSpace=wrap;html=1;fontFamily=Inter;fontSource=https%3A%2F%2Ffonts.googleapis.com%2Fcss%3Ffamily%3DInter;fontStyle=0;labelBackgroundColor=none;labelBorderColor=none;shadow=1;fillColor=#f5f5f5;fontColor=#333333;strokeColor=#666666;" parent="1" vertex="1">
          <mxGeometry x="-540" y="60" width="180" height="40" as="geometry" />
        </mxCell>
        <mxCell id="JP-1suK7QW4_6E5fCLCh-2" value="Mobile Development" style="rounded=1;whiteSpace=wrap;html=1;fontFamily=Inter;fontSource=https%3A%2F%2Ffonts.googleapis.com%2Fcss%3Ffamily%3DInter;fontStyle=0;labelBackgroundColor=none;labelBorderColor=none;shadow=1;fillColor=#f5f5f5;fontColor=#333333;strokeColor=#666666;" parent="1" vertex="1">
          <mxGeometry x="180" y="110" width="180" height="40" as="geometry" />
        </mxCell>
        <mxCell id="JP-1suK7QW4_6E5fCLCh-3" value="Data Analytics" style="rounded=1;whiteSpace=wrap;html=1;fontFamily=Inter;fontSource=https%3A%2F%2Ffonts.googleapis.com%2Fcss%3Ffamily%3DInter;fontStyle=0;labelBackgroundColor=none;labelBorderColor=none;shadow=1;fillColor=#f5f5f5;fontColor=#333333;strokeColor=#666666;" parent="1" vertex="1">
          <mxGeometry x="-780" y="260" width="180" height="40" as="geometry" />
        </mxCell>
        <mxCell id="JP-1suK7QW4_6E5fCLCh-4" value="Data Engineering" style="rounded=1;whiteSpace=wrap;html=1;fontFamily=Inter;fontSource=https%3A%2F%2Ffonts.googleapis.com%2Fcss%3Ffamily%3DInter;fontStyle=0;labelBackgroundColor=none;labelBorderColor=none;shadow=1;fillColor=#f5f5f5;fontColor=#333333;strokeColor=#666666;" parent="1" vertex="1">
          <mxGeometry x="-300" y="60" width="180" height="40" as="geometry" />
        </mxCell>
        <mxCell id="JP-1suK7QW4_6E5fCLCh-6" value="Data Science" style="rounded=1;whiteSpace=wrap;html=1;fontFamily=Inter;fontSource=https%3A%2F%2Ffonts.googleapis.com%2Fcss%3Ffamily%3DInter;fontStyle=0;labelBackgroundColor=none;labelBorderColor=none;shadow=1;fillColor=#f5f5f5;fontColor=#333333;strokeColor=#666666;" parent="1" vertex="1">
          <mxGeometry x="-780" y="110" width="180" height="40" as="geometry" />
        </mxCell>
        <mxCell id="JP-1suK7QW4_6E5fCLCh-7" value="Machine Learning" style="rounded=1;whiteSpace=wrap;html=1;fontFamily=Inter;fontSource=https%3A%2F%2Ffonts.googleapis.com%2Fcss%3Ffamily%3DInter;fontStyle=0;labelBackgroundColor=none;labelBorderColor=none;shadow=1;fillColor=#f5f5f5;fontColor=#333333;strokeColor=#666666;" parent="1" vertex="1">
          <mxGeometry x="-780" y="210" width="180" height="40" as="geometry" />
        </mxCell>
        <mxCell id="JP-1suK7QW4_6E5fCLCh-8" value="Predictive Model &amp;amp; Analytics" style="rounded=1;whiteSpace=wrap;html=1;fontFamily=Inter;fontSource=https%3A%2F%2Ffonts.googleapis.com%2Fcss%3Ffamily%3DInter;fontStyle=0;labelBackgroundColor=none;labelBorderColor=none;shadow=1;fillColor=#f5f5f5;fontColor=#333333;strokeColor=#666666;" parent="1" vertex="1">
          <mxGeometry x="-780" y="160" width="180" height="40" as="geometry" />
        </mxCell>
        <mxCell id="JP-1suK7QW4_6E5fCLCh-9" value="Data Visualization" style="rounded=1;whiteSpace=wrap;html=1;fontFamily=Inter;fontSource=https%3A%2F%2Ffonts.googleapis.com%2Fcss%3Ffamily%3DInter;fontStyle=0;labelBackgroundColor=none;labelBorderColor=none;shadow=1;fillColor=#f5f5f5;fontColor=#333333;strokeColor=#666666;" parent="1" vertex="1">
          <mxGeometry x="-300" y="160" width="180" height="40" as="geometry" />
        </mxCell>
        <mxCell id="JP-1suK7QW4_6E5fCLCh-10" value="Process Design &amp;amp; Modelling" style="rounded=1;whiteSpace=wrap;html=1;fontFamily=Inter;fontSource=https%3A%2F%2Ffonts.googleapis.com%2Fcss%3Ffamily%3DInter;fontStyle=0;labelBackgroundColor=none;labelBorderColor=none;shadow=1;fillColor=#f5f5f5;fontColor=#333333;strokeColor=#666666;" parent="1" vertex="1">
          <mxGeometry x="-540" y="110" width="180" height="40" as="geometry" />
        </mxCell>
        <mxCell id="JP-1suK7QW4_6E5fCLCh-11" value="Solution Design" style="rounded=1;whiteSpace=wrap;html=1;fontFamily=Inter;fontSource=https%3A%2F%2Ffonts.googleapis.com%2Fcss%3Ffamily%3DInter;fontStyle=0;labelBackgroundColor=none;labelBorderColor=none;shadow=1;fillColor=#f5f5f5;fontColor=#333333;strokeColor=#666666;" parent="1" vertex="1">
          <mxGeometry x="-540" y="160" width="180" height="40" as="geometry" />
        </mxCell>
        <mxCell id="JP-1suK7QW4_6E5fCLCh-22" value="Database Design" style="rounded=1;whiteSpace=wrap;html=1;fontFamily=Inter;fontSource=https%3A%2F%2Ffonts.googleapis.com%2Fcss%3Ffamily%3DInter;fontStyle=0;labelBackgroundColor=none;labelBorderColor=none;shadow=1;fillColor=#f5f5f5;fontColor=#333333;strokeColor=#666666;" parent="1" vertex="1">
          <mxGeometry x="-540" y="210" width="180" height="40" as="geometry" />
        </mxCell>
        <mxCell id="JP-1suK7QW4_6E5fCLCh-23" value="Functional (Usability) Testing" style="rounded=1;whiteSpace=wrap;html=1;fontFamily=Inter;fontSource=https%3A%2F%2Ffonts.googleapis.com%2Fcss%3Ffamily%3DInter;fontStyle=0;labelBackgroundColor=none;labelBorderColor=none;shadow=1;fillColor=#f5f5f5;fontColor=#333333;strokeColor=#666666;" parent="1" vertex="1">
          <mxGeometry x="-540" y="260" width="180" height="40" as="geometry" />
        </mxCell>
        <mxCell id="JP-1suK7QW4_6E5fCLCh-24" value="Non-Functional Testing" style="rounded=1;whiteSpace=wrap;html=1;fontFamily=Inter;fontSource=https%3A%2F%2Ffonts.googleapis.com%2Fcss%3Ffamily%3DInter;fontStyle=0;labelBackgroundColor=none;labelBorderColor=none;shadow=1;fillColor=#f5f5f5;fontColor=#333333;strokeColor=#666666;" parent="1" vertex="1">
          <mxGeometry x="-540" y="310" width="180" height="40" as="geometry" />
        </mxCell>
        <mxCell id="JP-1suK7QW4_6E5fCLCh-25" value="Data Analytics" style="rounded=1;whiteSpace=wrap;html=1;fontFamily=Inter;fontSource=https%3A%2F%2Ffonts.googleapis.com%2Fcss%3Ffamily%3DInter;fontStyle=0;labelBackgroundColor=none;labelBorderColor=none;shadow=1;fillColor=#f5f5f5;fontColor=#333333;strokeColor=#666666;" parent="1" vertex="1">
          <mxGeometry x="-300" y="110" width="180" height="40" as="geometry" />
        </mxCell>
        <mxCell id="JP-1suK7QW4_6E5fCLCh-26" value="Business Analyst" style="whiteSpace=wrap;html=1;verticalAlign=top;fontStyle=1;fontFamily=Poppins;fontSource=https%3A%2F%2Ffonts.googleapis.com%2Fcss%3Ffamily%3DPoppins;fontColor=#990000;fontSize=20;" parent="1" vertex="1">
          <mxGeometry x="-80" y="20" width="220" height="350" as="geometry" />
        </mxCell>
        <mxCell id="JP-1suK7QW4_6E5fCLCh-28" value="Application Support" style="rounded=1;whiteSpace=wrap;html=1;fontFamily=Inter;fontSource=https%3A%2F%2Ffonts.googleapis.com%2Fcss%3Ffamily%3DInter;fontStyle=0;labelBackgroundColor=none;labelBorderColor=none;shadow=1;fillColor=#f5f5f5;fontColor=#333333;strokeColor=#666666;" parent="1" vertex="1">
          <mxGeometry x="-60" y="260" width="180" height="40" as="geometry" />
        </mxCell>
        <mxCell id="JP-1suK7QW4_6E5fCLCh-29" value="System Functional Impact Analysis" style="rounded=1;whiteSpace=wrap;html=1;fontFamily=Inter;fontSource=https%3A%2F%2Ffonts.googleapis.com%2Fcss%3Ffamily%3DInter;fontStyle=0;labelBackgroundColor=none;labelBorderColor=none;shadow=1;fillColor=#f5f5f5;fontColor=#333333;strokeColor=#666666;" parent="1" vertex="1">
          <mxGeometry x="-60" y="110" width="180" height="40" as="geometry" />
        </mxCell>
        <mxCell id="JP-1suK7QW4_6E5fCLCh-30" value="Non-Functional Testing" style="rounded=1;whiteSpace=wrap;html=1;fontFamily=Inter;fontSource=https%3A%2F%2Ffonts.googleapis.com%2Fcss%3Ffamily%3DInter;fontStyle=0;labelBackgroundColor=none;labelBorderColor=none;shadow=1;fillColor=#f5f5f5;fontColor=#333333;strokeColor=#666666;" parent="1" vertex="1">
          <mxGeometry x="-60" y="210" width="180" height="40" as="geometry" />
        </mxCell>
        <mxCell id="JP-1suK7QW4_6E5fCLCh-31" value="Functional (Usability) Testing" style="rounded=1;whiteSpace=wrap;html=1;fontFamily=Inter;fontSource=https%3A%2F%2Ffonts.googleapis.com%2Fcss%3Ffamily%3DInter;fontStyle=0;labelBackgroundColor=none;labelBorderColor=none;shadow=1;fillColor=#f5f5f5;fontColor=#333333;strokeColor=#666666;" parent="1" vertex="1">
          <mxGeometry x="-60" y="160" width="180" height="40" as="geometry" />
        </mxCell>
        <mxCell id="JP-1suK7QW4_6E5fCLCh-32" value="Technical Impact Analysis" style="rounded=1;whiteSpace=wrap;html=1;fontFamily=Inter;fontSource=https%3A%2F%2Ffonts.googleapis.com%2Fcss%3Ffamily%3DInter;fontStyle=0;labelBackgroundColor=none;labelBorderColor=none;shadow=1;fillColor=#f5f5f5;fontColor=#333333;strokeColor=#666666;" parent="1" vertex="1">
          <mxGeometry x="420" y="60" width="180" height="40" as="geometry" />
        </mxCell>
        <mxCell id="JP-1suK7QW4_6E5fCLCh-33" value="Requirement Gathering &amp;amp; Analysis" style="rounded=1;whiteSpace=wrap;html=1;fontFamily=Inter;fontSource=https%3A%2F%2Ffonts.googleapis.com%2Fcss%3Ffamily%3DInter;fontStyle=0;labelBackgroundColor=none;labelBorderColor=none;shadow=1;fillColor=#f5f5f5;fontColor=#333333;strokeColor=#666666;" parent="1" vertex="1">
          <mxGeometry x="-60" y="60" width="180" height="40" as="geometry" />
        </mxCell>
        <mxCell id="JP-1suK7QW4_6E5fCLCh-35" value="Web Development" style="rounded=1;whiteSpace=wrap;html=1;fontFamily=Inter;fontSource=https%3A%2F%2Ffonts.googleapis.com%2Fcss%3Ffamily%3DInter;fontStyle=0;labelBackgroundColor=none;labelBorderColor=none;shadow=1;fillColor=#f5f5f5;fontColor=#333333;strokeColor=#666666;" parent="1" vertex="1">
          <mxGeometry x="180" y="160" width="180" height="40" as="geometry" />
        </mxCell>
        <mxCell id="JP-1suK7QW4_6E5fCLCh-37" value="API Integration" style="rounded=1;whiteSpace=wrap;html=1;fontFamily=Inter;fontSource=https%3A%2F%2Ffonts.googleapis.com%2Fcss%3Ffamily%3DInter;fontStyle=0;labelBackgroundColor=none;labelBorderColor=none;shadow=1;fillColor=#f5f5f5;fontColor=#333333;strokeColor=#666666;" parent="1" vertex="1">
          <mxGeometry x="180" y="210" width="180" height="40" as="geometry" />
        </mxCell>
        <mxCell id="gK_ERNJTbto_oaj90uAH-9" value="Configuration Management" style="rounded=1;whiteSpace=wrap;html=1;fontFamily=Inter;fontSource=https%3A%2F%2Ffonts.googleapis.com%2Fcss%3Ffamily%3DInter;fontStyle=0;labelBackgroundColor=none;labelBorderColor=none;shadow=1;fillColor=#f5f5f5;fontColor=#333333;strokeColor=#666666;" parent="1" vertex="1">
          <mxGeometry x="-60" y="310" width="180" height="40" as="geometry" />
        </mxCell>
        <mxCell id="JP-1suK7QW4_6E5fCLCh-38" value="Back-end Development" style="rounded=1;whiteSpace=wrap;html=1;fontFamily=Inter;fontSource=https%3A%2F%2Ffonts.googleapis.com%2Fcss%3Ffamily%3DInter;fontStyle=0;labelBackgroundColor=none;labelBorderColor=none;shadow=1;fillColor=#f5f5f5;fontColor=#333333;strokeColor=#666666;" parent="1" vertex="1">
          <mxGeometry x="420" y="210" width="180" height="40" as="geometry" />
        </mxCell>
        <mxCell id="JP-1suK7QW4_6E5fCLCh-39" value="Integration Development" style="rounded=1;whiteSpace=wrap;html=1;fontFamily=Inter;fontSource=https%3A%2F%2Ffonts.googleapis.com%2Fcss%3Ffamily%3DInter;fontStyle=0;labelBackgroundColor=none;labelBorderColor=none;shadow=1;fillColor=#f5f5f5;fontColor=#333333;strokeColor=#666666;" parent="1" vertex="1">
          <mxGeometry x="420" y="260" width="180" height="40" as="geometry" />
        </mxCell>
        <mxCell id="JP-1suK7QW4_6E5fCLCh-40" value="LAS Developer" style="whiteSpace=wrap;html=1;verticalAlign=top;fontStyle=1;fontFamily=Poppins;fontSource=https%3A%2F%2Ffonts.googleapis.com%2Fcss%3Ffamily%3DPoppins;fontColor=#990000;fontSize=20;" parent="1" vertex="1">
          <mxGeometry x="880" y="20" width="220" height="100" as="geometry" />
        </mxCell>
        <mxCell id="JP-1suK7QW4_6E5fCLCh-43" value="LAS Development" style="rounded=1;whiteSpace=wrap;html=1;fontFamily=Inter;fontSource=https%3A%2F%2Ffonts.googleapis.com%2Fcss%3Ffamily%3DInter;fontStyle=0;labelBackgroundColor=none;labelBorderColor=none;shadow=1;fillColor=#f5f5f5;fontColor=#333333;strokeColor=#666666;" parent="1" vertex="1">
          <mxGeometry x="900" y="60" width="180" height="40" as="geometry" />
        </mxCell>
      </root>
    </mxGraphModel>
  </diagram>
  <diagram id="NhwOkz-5ZbLkw25nHHqX" name="PCLA Report Journey Grouping">
    <mxGraphModel dx="2249" dy="762" grid="1" gridSize="10" guides="1" tooltips="1" connect="1" arrows="1" fold="1" page="1" pageScale="1" pageWidth="827" pageHeight="1169" math="0" shadow="0">
      <root>
        <mxCell id="0" />
        <mxCell id="1" parent="0" />
        <mxCell id="jCsaDi3bqYyT1ajei0VL-1" value="" style="rounded=0;whiteSpace=wrap;html=1;shadow=0;sketch=0;fontFamily=Helvetica;fontSize=14;fillColor=#f5f5f5;fontColor=#333333;strokeColor=#CCCCCC;" vertex="1" parent="1">
          <mxGeometry x="-819.48" y="10" width="1539.48" height="90" as="geometry" />
        </mxCell>
        <mxCell id="jCsaDi3bqYyT1ajei0VL-2" value="PCLA Data Journey Grouping" style="text;html=1;strokeColor=none;fillColor=none;align=left;verticalAlign=middle;whiteSpace=wrap;rounded=0;fontSize=34;fontFamily=Helvetica;fontStyle=1;fontColor=#D50000;sketch=0;shadow=0;" vertex="1" parent="1">
          <mxGeometry x="-800.48" y="20" width="769.48" height="50" as="geometry" />
        </mxCell>
        <mxCell id="jCsaDi3bqYyT1ajei0VL-3" value="Version: &lt;b&gt;1.0&lt;/b&gt;&lt;span style=&quot;white-space: pre;&quot;&gt; &lt;/span&gt;&lt;span style=&quot;white-space: pre;&quot;&gt; &lt;/span&gt;&lt;span style=&quot;white-space: pre;&quot;&gt; &lt;/span&gt;Author: &lt;b&gt;Vannak Suon&lt;/b&gt;" style="text;html=1;strokeColor=none;fillColor=none;align=left;verticalAlign=middle;whiteSpace=wrap;rounded=0;fontSize=14;fontFamily=Helvetica;fontStyle=0;fontColor=#4D4D4D;sketch=0;shadow=0;" vertex="1" parent="1">
          <mxGeometry x="-799.48" y="70" width="769.48" height="20" as="geometry" />
        </mxCell>
        <mxCell id="7DV4LQCnAMjEqy_RZnMf-1" value="Lead &amp;amp; Prospecting" style="rounded=1;whiteSpace=wrap;html=1;fontFamily=Inter;fontSource=https%3A%2F%2Ffonts.googleapis.com%2Fcss%3Ffamily%3DInter;fontStyle=0;labelBackgroundColor=none;labelBorderColor=none;shadow=1;fillColor=#d5e8d4;strokeColor=#82b366;fontSize=14;" vertex="1" parent="1">
          <mxGeometry x="-799.48" y="270" width="180" height="60" as="geometry" />
        </mxCell>
        <mxCell id="7DV4LQCnAMjEqy_RZnMf-2" value="Proposal" style="rounded=1;whiteSpace=wrap;html=1;fontFamily=Inter;fontSource=https%3A%2F%2Ffonts.googleapis.com%2Fcss%3Ffamily%3DInter;fontStyle=0;labelBackgroundColor=none;labelBorderColor=none;shadow=1;fillColor=#d5e8d4;strokeColor=#82b366;fontSize=14;" vertex="1" parent="1">
          <mxGeometry x="-460" y="270" width="180" height="60" as="geometry" />
        </mxCell>
        <mxCell id="7DV4LQCnAMjEqy_RZnMf-3" value="New Business" style="rounded=1;whiteSpace=wrap;html=1;fontFamily=Inter;fontSource=https%3A%2F%2Ffonts.googleapis.com%2Fcss%3Ffamily%3DInter;fontStyle=0;labelBackgroundColor=none;labelBorderColor=none;shadow=1;fillColor=#d5e8d4;strokeColor=#82b366;fontSize=14;" vertex="1" parent="1">
          <mxGeometry x="-9.999999999999972" y="270" width="180" height="60" as="geometry" />
        </mxCell>
        <mxCell id="7DV4LQCnAMjEqy_RZnMf-4" value="Actuarial" style="rounded=1;whiteSpace=wrap;html=1;fontFamily=Inter;fontSource=https%3A%2F%2Ffonts.googleapis.com%2Fcss%3Ffamily%3DInter;fontStyle=0;labelBackgroundColor=none;labelBorderColor=none;shadow=1;fillColor=#f5f5f5;fontColor=#333333;strokeColor=#666666;fontSize=14;" vertex="1" parent="1">
          <mxGeometry x="670" y="270" width="180" height="60" as="geometry" />
        </mxCell>
        <mxCell id="7DV4LQCnAMjEqy_RZnMf-6" value="Sale Performance" style="rounded=1;whiteSpace=wrap;html=1;fontFamily=Inter;fontSource=https%3A%2F%2Ffonts.googleapis.com%2Fcss%3Ffamily%3DInter;fontStyle=0;labelBackgroundColor=none;labelBorderColor=none;shadow=1;fillColor=#f5f5f5;fontColor=#333333;strokeColor=#666666;fontSize=14;" vertex="1" parent="1">
          <mxGeometry x="-250" y="410" width="180" height="60" as="geometry" />
        </mxCell>
        <mxCell id="7DV4LQCnAMjEqy_RZnMf-7" value="Submission" style="shape=flexArrow;endArrow=classic;html=1;rounded=0;fontSize=14;entryX=0;entryY=0.5;entryDx=0;entryDy=0;exitX=1;exitY=0.5;exitDx=0;exitDy=0;fillColor=#f5f5f5;strokeColor=#666666;" edge="1" parent="1" source="7DV4LQCnAMjEqy_RZnMf-2" target="7DV4LQCnAMjEqy_RZnMf-3">
          <mxGeometry x="-0.0526" y="20" width="50" height="50" relative="1" as="geometry">
            <mxPoint x="-360" y="400" as="sourcePoint" />
            <mxPoint x="-310" y="350" as="targetPoint" />
            <mxPoint as="offset" />
          </mxGeometry>
        </mxCell>
        <mxCell id="7DV4LQCnAMjEqy_RZnMf-8" value="" style="shape=flexArrow;endArrow=classic;html=1;rounded=0;fontSize=14;entryX=0.5;entryY=0;entryDx=0;entryDy=0;" edge="1" parent="1" target="7DV4LQCnAMjEqy_RZnMf-6">
          <mxGeometry width="50" height="50" relative="1" as="geometry">
            <mxPoint x="-160" y="310" as="sourcePoint" />
            <mxPoint x="-40" y="310" as="targetPoint" />
          </mxGeometry>
        </mxCell>
        <mxCell id="7DV4LQCnAMjEqy_RZnMf-9" value="Closure" style="shape=flexArrow;endArrow=classic;html=1;rounded=0;fontSize=14;entryX=0;entryY=0.5;entryDx=0;entryDy=0;exitX=1;exitY=0.5;exitDx=0;exitDy=0;fillColor=#f5f5f5;strokeColor=#666666;" edge="1" parent="1" source="7DV4LQCnAMjEqy_RZnMf-1" target="7DV4LQCnAMjEqy_RZnMf-2">
          <mxGeometry x="-0.0526" y="20" width="50" height="50" relative="1" as="geometry">
            <mxPoint x="-622" y="420" as="sourcePoint" />
            <mxPoint x="-413" y="420" as="targetPoint" />
            <mxPoint as="offset" />
          </mxGeometry>
        </mxCell>
        <mxCell id="7DV4LQCnAMjEqy_RZnMf-10" value="Pending" style="rounded=1;whiteSpace=wrap;html=1;fontFamily=Inter;fontSource=https%3A%2F%2Ffonts.googleapis.com%2Fcss%3Ffamily%3DInter;fontStyle=0;labelBackgroundColor=none;labelBorderColor=none;shadow=1;fillColor=#fff2cc;strokeColor=#d6b656;fontSize=14;" vertex="1" parent="1">
          <mxGeometry x="-10" y="340" width="180" height="40" as="geometry" />
        </mxCell>
        <mxCell id="7DV4LQCnAMjEqy_RZnMf-12" value="Underwriting" style="rounded=1;whiteSpace=wrap;html=1;fontFamily=Inter;fontSource=https%3A%2F%2Ffonts.googleapis.com%2Fcss%3Ffamily%3DInter;fontStyle=0;labelBackgroundColor=none;labelBorderColor=none;shadow=1;fillColor=#d5e8d4;strokeColor=#82b366;fontSize=14;" vertex="1" parent="1">
          <mxGeometry x="320" y="270" width="180" height="60" as="geometry" />
        </mxCell>
        <mxCell id="7DV4LQCnAMjEqy_RZnMf-13" value="Submission" style="shape=flexArrow;endArrow=classic;html=1;rounded=0;fontSize=14;entryX=0;entryY=0.5;entryDx=0;entryDy=0;fillColor=#f5f5f5;strokeColor=#666666;exitX=1;exitY=0.5;exitDx=0;exitDy=0;" edge="1" parent="1" source="7DV4LQCnAMjEqy_RZnMf-3" target="7DV4LQCnAMjEqy_RZnMf-12">
          <mxGeometry x="-0.0526" y="20" width="50" height="50" relative="1" as="geometry">
            <mxPoint x="230" y="370" as="sourcePoint" />
            <mxPoint y="310" as="targetPoint" />
            <mxPoint as="offset" />
          </mxGeometry>
        </mxCell>
        <mxCell id="7DV4LQCnAMjEqy_RZnMf-15" value="Performance Metric" style="rounded=1;whiteSpace=wrap;html=1;fontFamily=Inter;fontSource=https%3A%2F%2Ffonts.googleapis.com%2Fcss%3Ffamily%3DInter;fontStyle=0;labelBackgroundColor=none;labelBorderColor=none;shadow=1;fillColor=#fff2cc;strokeColor=#d6b656;fontSize=14;" vertex="1" parent="1">
          <mxGeometry x="-10" y="390" width="180" height="40" as="geometry" />
        </mxCell>
        <mxCell id="7DV4LQCnAMjEqy_RZnMf-17" value="Pending" style="rounded=1;whiteSpace=wrap;html=1;fontFamily=Inter;fontSource=https%3A%2F%2Ffonts.googleapis.com%2Fcss%3Ffamily%3DInter;fontStyle=0;labelBackgroundColor=none;labelBorderColor=none;shadow=1;fillColor=#fff2cc;strokeColor=#d6b656;fontSize=14;" vertex="1" parent="1">
          <mxGeometry x="320" y="340" width="180" height="40" as="geometry" />
        </mxCell>
      </root>
    </mxGraphModel>
  </diagram>
</mxfile>
